<svg xmlns="http://www.w3.org/2000/svg" viewBox="0 0 64 64" width="64" height="64">
  <circle cx="32" cy="32" r="30" fill="#61dafb" />
  <path
    d="M32 2C15.432 2 2 15.432 2 32s13.432 30 30 30 30-13.432 30-30S48.568 2 32 2zm0 58c-15.439 0-28-12.561-28-28s12.561-28 28-28 28 12.561 28 28-12.561 28-28 28zm-7.5-40.5l-1.5 8.25h9l-1.5-8.25h-6zm1.5 10.5h6v6h-6v-6zm-1.5 9l1.5 8.25h6l-1.5-8.25h-9zm-1.5 10.5h9v6h-9v-6zm-1.5 9l1.5 8.25h6l-1.5-8.25h-6zm1.5 10.5h6v6h-6v-6zm-1.5 9l1.5 8.25h6l-1.5-8.25h-9zm-1.5 10.5h9v6h-9v-6zm-1.5 9l1.5 8.25h6l-1.5-8.25h-6z"
    fill="#000"
  />
</svg>
