<?xml version="1.0" encoding="iso-8859-1"?>
<!-- Uploaded to: SVG Repo, www.svgrepo.com, Generator: SVG Repo Mixer Tools -->
<svg height="800px" width="800px" version="1.1" id="Layer_1" xmlns="http://www.w3.org/2000/svg" xmlns:xlink="http://www.w3.org/1999/xlink" 
	 viewBox="0 0 512 512" xml:space="preserve">
<path style="fill:#90B5BF;" d="M202.105,234.442v140.126H29.642c-11.906,0-21.558-9.651-21.558-21.558V234.442
	c0-35.718,28.955-64.674,64.674-64.674h64.674C173.15,169.768,202.105,198.724,202.105,234.442z"/>
<path style="fill:#769CA5;" d="M105.095,374.568H29.642c-11.906,0-21.558-9.651-21.558-21.558V234.442
	c0-35.718,28.955-64.674,64.674-64.674h32.337V374.568z"/>
<path style="fill:#A89B80;" d="M503.916,374.568v118.568c0,5.953-4.826,10.779-10.779,10.779H29.642
	c-5.953,0-10.779-4.826-10.779-10.779V374.568c0-5.953,4.826-10.779,10.779-10.779h463.495
	C499.09,363.789,503.916,368.615,503.916,374.568z"/>
<path style="fill:#E5E5E5;" d="M148.211,379.958L148.211,379.958c0,14.882-12.065,26.947-26.947,26.947H99.705
	c-14.882,0-26.947-12.065-26.947-26.947l0,0c0-14.883,12.065-26.947,26.947-26.947h21.558
	C136.146,353.01,148.211,365.075,148.211,379.958z"/>
<path style="fill:#F4C064;" d="M148.211,94.316c0,23.812-19.304,43.116-43.116,43.116s-43.116-19.304-43.116-43.116
	S81.283,51.2,105.095,51.2S148.211,70.504,148.211,94.316z M105.095,331.453H51.2v-64.674c0-5.953-4.826-10.779-10.779-10.779H8.084
	v75.453v21.558c0,11.906,9.651,21.558,21.558,21.558H51.2h53.895c11.906,0,21.558-9.651,21.558-21.558l0,0
	C126.653,341.104,117.001,331.453,105.095,331.453z"/>
<path style="fill:#F4AB53;" d="M105.095,51.2v86.232c-23.812,0-43.116-19.304-43.116-43.116S81.283,51.2,105.095,51.2z"/>
<path style="fill:#C1C1C1;" d="M471.579,245.221v194.021c0,11.906-9.651,21.558-21.558,21.558H202.105
	c-11.906,0-21.558-9.651-21.558-21.558V245.221c0-11.906,9.651-21.558,21.558-21.558h247.916
	C461.927,223.663,471.579,233.315,471.579,245.221z"/>
<path style="fill:#DBDBDB;" d="M471.579,245.221v194.021c0,11.906-9.651,21.558-21.558,21.558H326.063V223.663h123.958
	C461.927,223.663,471.579,233.315,471.579,245.221z"/>
<path style="fill:#F7F7F7;" d="M364.532,373.799l4.647,130.117h-86.232l4.647-130.117c0.414-11.599,9.937-20.788,21.544-20.788
	h33.849C354.594,353.01,364.117,362.2,364.532,373.799z"/>
<path style="fill:#BBFFAB;" d="M363.789,126.653v43.116c0,5.953-4.826,10.779-10.779,10.779h-43.116
	c-5.953,0-10.779-4.826-10.779-10.779v-43.116c0-5.953,4.826-10.779,10.779-10.779h43.116
	C358.964,115.874,363.789,120.699,363.789,126.653z"/>
<path style="fill:#D199D1;" d="M471.579,61.979v32.337c0,5.953-4.826,10.779-10.779,10.779h-32.337
	c-5.953,0-10.779-4.826-10.779-10.779V61.979c0-5.953,4.826-10.779,10.779-10.779H460.8C466.753,51.2,471.579,56.026,471.579,61.979
	z"/>
<path style="fill:#A7E5CB;" d="M299.116,18.863v21.558c0,5.953-4.826,10.779-10.779,10.779h-21.558
	C260.826,51.2,256,46.374,256,40.421V18.863c0-5.953,4.826-10.779,10.779-10.779h21.558C294.29,8.084,299.116,12.91,299.116,18.863z
	"/>
<path d="M428.463,113.179H460.8c10.401,0,18.863-8.463,18.863-18.863V61.979c0-10.401-8.463-18.863-18.863-18.863h-32.337
	c-10.401,0-18.863,8.463-18.863,18.863v32.337C409.6,104.716,418.063,113.179,428.463,113.179z M425.768,61.979
	c0-1.486,1.208-2.695,2.695-2.695H460.8c1.486,0,2.695,1.208,2.695,2.695v32.337c0,1.486-1.208,2.695-2.695,2.695h-32.337
	c-1.486,0-2.695-1.208-2.695-2.695V61.979z M309.895,107.789h43.116c10.401,0,18.863,8.463,18.863,18.863v43.116
	c0,10.401-8.463,18.863-18.863,18.863h-43.116c-10.401,0-18.863-8.463-18.863-18.863v-10.779c0-4.466,3.618-8.084,8.084-8.084
	s8.084,3.618,8.084,8.084v10.779c0,1.486,1.208,2.695,2.695,2.695h43.116c1.486,0,2.695-1.208,2.695-2.695v-43.116
	c0-1.486-1.208-2.695-2.695-2.695h-43.116c-1.486,0-2.695,1.208-2.695,2.695c0,4.466-3.618,8.084-8.084,8.084
	s-8.084-3.618-8.084-8.084C291.032,116.252,299.494,107.789,309.895,107.789z M105.095,145.516c28.231,0,51.2-22.969,51.2-51.2
	s-22.969-51.2-51.2-51.2s-51.2,22.969-51.2,51.2S76.864,145.516,105.095,145.516z M105.095,59.284
	c19.316,0,35.032,15.715,35.032,35.032s-15.716,35.032-35.032,35.032s-35.032-15.715-35.032-35.032S85.779,59.284,105.095,59.284z
	 M503.916,355.705h-24.253V245.221c0-16.344-13.298-29.642-29.642-29.642H202.105c-16.345,0-29.642,13.298-29.642,29.642v110.484
	h-25.9c-3.419-3.57-7.612-6.433-12.36-8.314c-2.633-13.668-14.684-24.023-29.109-24.023H59.284V256c0-4.466-3.62-8.084-8.084-8.084
	s-8.084,3.618-8.084,8.084v75.453c0,4.466,3.62,8.084,8.084,8.084h53.895c7.43,0,13.474,6.044,13.474,13.474
	s-6.044,13.474-13.474,13.474H29.642c-7.43,0-13.474-6.044-13.474-13.474V234.442c0-31.203,25.385-56.589,56.589-56.589h64.674
	c16.67,0,32.417,7.304,43.203,20.039c2.886,3.404,7.987,3.831,11.393,0.943c3.407-2.886,3.83-7.986,0.944-11.393
	c-13.864-16.369-34.108-25.757-55.541-25.757H72.758C32.639,161.684,0,194.323,0,234.442V353.01
	c0,16.344,13.297,29.642,29.642,29.642h35.134c1.381,18.062,16.519,32.337,34.929,32.337h21.558
	c19.316,0,35.032-15.715,35.032-35.032c0-2.77-0.323-5.479-0.939-8.084h17.107v67.368c0,16.344,13.297,29.642,29.642,29.642h74.004
	l-0.964,26.947h-35.314c-4.465,0-8.084,3.618-8.084,8.084s3.62,8.084,8.084,8.084h43.079c0.029,0,0.057,0,0.082,0h86.141
	c0.013,0,0.026,0,0.04,0c0.014,0,0.027,0,0.041,0h43.08c4.466,0,8.084-3.618,8.084-8.084s-3.618-8.084-8.084-8.084H376.98
	l-0.964-26.947h74.005c16.344,0,29.642-13.298,29.642-29.642v-67.368h24.253c4.466,0,8.084-3.618,8.084-8.084
	S508.382,355.705,503.916,355.705z M121.263,398.821H99.705c-9.487,0-17.359-7.039-18.671-16.168h24.061
	c12.205,0,22.71-7.416,27.249-17.976c4.78,3.466,7.782,9.086,7.782,15.281C140.126,390.358,131.664,398.821,121.263,398.821z
	 M463.495,439.242c0,7.43-6.044,13.474-13.474,13.474H375.44l-2.829-79.205c-0.571-16.028-13.584-28.585-29.623-28.585
	c-4.466,0-8.084,3.618-8.084,8.084s3.618,8.084,8.084,8.084c7.291,0,13.205,5.707,13.465,12.993l4.348,121.744h-69.476
	l4.348-121.744c0.26-7.285,6.175-12.993,13.465-12.993c4.466,0,8.084-3.618,8.084-8.084c0-4.466-3.618-8.084-8.084-8.084
	c-16.04,0-29.051,12.555-29.623,28.585l-2.831,79.205h-74.581c-7.43,0-13.474-6.044-13.474-13.474V245.221
	c0-7.43,6.044-13.474,13.474-13.474h247.916c7.43,0,13.474,6.044,13.474,13.474V439.242z M266.779,59.284h21.558
	c10.401,0,18.863-8.463,18.863-18.863V18.863C307.2,8.463,298.737,0,288.337,0h-21.558c-10.401,0-18.863,8.463-18.863,18.863v21.558
	C247.916,50.822,256.378,59.284,266.779,59.284z M264.084,18.863c0-1.486,1.208-2.695,2.695-2.695h21.558
	c1.486,0,2.695,1.208,2.695,2.695v21.558c0,1.486-1.208,2.695-2.695,2.695h-21.558c-1.486,0-2.695-1.208-2.695-2.695V18.863z"/>
</svg>