<svg xmlns="http://www.w3.org/2000/svg" width="1024" height="1024" viewBox="0 0 1024 1024" version="1.1"><path d="M 524.500 149.910 C 519.629 151.116, 517.319 152.749, 514.839 156.737 L 512.500 160.500 512.500 208.544 C 512.500 261.951, 512.228 259.729, 519.304 264.044 C 522.354 265.904, 524.685 265.993, 570.349 265.996 C 623.852 266, 622.878 266.120, 626.836 259.078 C 628.971 255.279, 629 254.586, 628.996 207.364 C 628.993 161.656, 628.905 159.356, 627.040 156.299 C 622.850 149.427, 623.564 149.519, 573 149.333 C 547.975 149.241, 526.150 149.501, 524.500 149.910 M 381.500 153.965 C 367.533 155.374, 350.525 161.880, 338.656 170.353 C 331.946 175.144, 318.133 189.093, 314.982 194.262 C 313.896 196.043, 313.006 198.665, 313.004 200.089 C 312.995 205.983, 323.902 214.994, 329.380 213.620 C 330.660 213.298, 336.610 208.171, 342.603 202.226 C 354.427 190.496, 363.856 184.575, 375.564 181.525 C 384.437 179.214, 396.937 179.583, 406.685 182.444 C 418.134 185.805, 422.284 184.416, 425.897 176.017 C 428.379 170.248, 428.508 167.884, 426.549 164.095 C 423.037 157.303, 399.925 152.106, 381.500 153.965 M 461.558 156.431 C 444.687 162.702, 440.852 183.882, 454.428 195.803 C 459.984 200.681, 470.398 202.359, 477.310 199.491 C 478.934 198.817, 479.088 199.243, 478.810 203.620 C 478.570 207.393, 478.160 208.403, 477 208.073 C 469.321 205.884, 460.082 207.564, 454.234 212.212 C 449.275 216.152, 447.253 219.466, 445.936 225.808 C 442.496 242.380, 457.508 256.956, 473.955 253.011 C 487.845 249.679, 495.321 235.665, 490.500 222 C 489.456 219.041, 489 213.720, 489 204.500 C 489 195.280, 489.456 189.959, 490.500 187 C 493.519 178.443, 491.878 167.715, 486.702 162.166 C 481.170 156.235, 469.343 153.538, 461.558 156.431 M 557.103 160.437 C 557.810 161.144, 577.006 161.327, 577.700 160.634 C 578.048 160.285, 573.458 160, 567.500 160 C 561.542 160, 556.863 160.197, 557.103 160.437 M 380.500 164.216 C 361.404 166.427, 341.181 178.063, 327.003 194.996 C 323.269 199.457, 323.235 199.572, 325.010 201.765 L 326.817 203.995 333.658 196.871 C 346.441 183.559, 359.722 175.211, 374.060 171.475 C 382.434 169.293, 403.082 169.868, 410.304 172.484 C 415.654 174.423, 415.845 174.374, 416.228 170.966 C 416.476 168.767, 415.843 168.369, 409 166.414 C 400.098 163.871, 390.125 163.102, 380.500 164.216 M 465.828 172.036 C 463.274 173.527, 462.526 178.627, 464.435 181.541 C 465.691 183.458, 466.906 184, 469.952 184 C 474.541 184, 477 181.959, 477 178.151 C 477 172.238, 471.057 168.985, 465.828 172.036 M 651.280 180.020 C 646.966 181.756, 646.902 189.539, 651.182 191.934 C 654.684 193.893, 659.012 192.461, 660.788 188.756 C 661.871 186.498, 661.837 185.585, 660.581 183.156 C 659.755 181.560, 658.050 179.978, 656.790 179.641 C 654.033 178.902, 654.063 178.900, 651.280 180.020 M 678.123 183.099 C 675.425 185.995, 675.450 187.398, 678.250 190.066 C 680.329 192.046, 681.200 192.162, 689.714 191.587 C 700.786 190.839, 701.839 190.490, 702.638 187.305 C 703.761 182.832, 701.125 181.541, 690.089 181.160 C 680.906 180.843, 680.103 180.973, 678.123 183.099 M 376.124 186.578 C 363.766 189.902, 348.099 201.091, 343.596 209.810 C 341.970 212.958, 341.977 213.276, 343.733 216.283 C 346.308 220.691, 355.540 228, 358.533 228 C 360.165 228, 363.365 225.822, 368.050 221.523 C 373.233 216.766, 376.470 214.641, 380.236 213.523 C 391.632 210.138, 400.875 212.508, 410.855 221.371 C 414.431 224.547, 416.951 226, 418.883 226 C 422.243 226, 428.747 221.509, 432.485 216.608 C 436.416 211.454, 435.396 208.559, 426.786 200.437 C 412.923 187.359, 393.239 181.974, 376.124 186.578 M 716.237 195.108 C 711.332 196.923, 710.804 205.042, 715.454 207.161 C 721.048 209.710, 727.324 203.999, 724.863 198.598 C 723.505 195.619, 719.374 193.948, 716.237 195.108 M 272.400 195.765 C 271.071 196.652, 269 200.439, 269 201.980 C 269 203.874, 273.798 208, 276 208 C 278.678 208, 283 203.706, 283 201.045 C 283 196.726, 276.105 193.291, 272.400 195.765 M 381.712 196.122 C 379.078 196.637, 374.415 198.168, 371.350 199.524 C 365.443 202.136, 354.010 210.752, 354.004 212.595 C 354.002 213.197, 354.914 214.517, 356.030 215.527 C 358.023 217.330, 358.149 217.279, 362.780 212.781 C 370.286 205.492, 376.739 202.676, 387.076 202.182 C 398.470 201.637, 406.374 204.110, 413.686 210.507 C 416.511 212.978, 419.243 215, 419.756 215 C 420.270 215, 421.470 214.138, 422.424 213.084 C 424.099 211.233, 423.906 210.978, 416.829 205.667 C 405.919 197.479, 392.881 193.935, 381.712 196.122 M 565.383 198.583 C 561.755 200.373, 560 203.654, 560 208.647 C 560 213.555, 565.353 219, 570.177 219 C 576.350 219, 580.920 214.541, 580.968 208.473 C 581.005 203.816, 579.085 200.613, 574.989 198.494 C 571.366 196.621, 569.322 196.640, 565.383 198.583 M 679.073 211.635 C 677.933 213.084, 677 215.129, 677 216.180 C 677 218.648, 681.352 223, 683.820 223 C 687.107 223, 691 219.165, 691 215.927 C 691 209.448, 683.045 206.585, 679.073 211.635 M 739.308 217.914 C 727.326 221.342, 715.674 230.599, 710.089 241.125 C 708.238 244.616, 706.713 246.004, 703.110 247.482 C 700.446 248.574, 695.931 251.932, 692.415 255.436 C 677.683 270.119, 674.206 291.649, 683.500 310.632 C 689.169 322.209, 701.595 332.520, 712.297 334.528 C 715.521 335.133, 716.243 335.850, 718.429 340.625 C 721.296 346.889, 729.803 355.838, 735.795 358.895 C 753.228 367.789, 774.976 364.777, 789.919 351.399 C 792.845 348.780, 795.923 347.034, 798.438 346.568 C 809.711 344.481, 823.732 333.353, 829.273 322.097 C 832.366 315.813, 832.500 315.045, 832.500 303.521 C 832.500 291.932, 832.381 291.256, 829.173 284.695 C 824.832 275.817, 817.017 268.097, 808.704 264.476 L 802.405 261.731 801.180 255.116 C 797.756 236.620, 784.393 222.203, 766.307 217.492 C 758.766 215.527, 747.007 215.711, 739.308 217.914 M 385.170 218.992 C 380.796 220.027, 374.939 224.780, 372.752 229.071 C 370.629 233.233, 370.450 242.046, 372.411 245.800 C 375.442 251.601, 383.603 257, 389.342 257 C 392.996 257, 400.149 254.203, 402.853 251.716 C 408.272 246.734, 410.421 237.331, 407.653 230.718 C 405.822 226.345, 398.976 220.365, 394.321 219.072 C 390.057 217.888, 389.847 217.886, 385.170 218.992 M 651.500 219.171 C 648.708 220.788, 648.033 222.033, 648.015 225.595 C 647.984 231.929, 655.932 234.445, 659.927 229.365 C 662.459 226.146, 662.549 223.870, 660.250 221.153 C 658.050 218.554, 654.108 217.661, 651.500 219.171 M 460.892 220.250 C 458.133 222.564, 456.962 224.736, 457.590 226.373 C 459.140 230.413, 464 226.304, 464 220.953 C 464 218.699, 463.009 218.474, 460.892 220.250 M 175.500 223.401 C 171.817 225.051, 168.484 228.574, 167.067 232.315 C 166.345 234.220, 166 259.867, 166 311.615 C 166 395.552, 165.767 392.277, 171.967 395.483 C 174.507 396.797, 184.264 397, 244.700 396.998 C 309.163 396.997, 314.765 396.863, 317.966 395.248 C 325.366 391.516, 324.961 396.404, 325.018 310.088 C 325.067 237.659, 324.958 232.613, 323.285 229.757 C 322.303 228.081, 320.230 225.762, 318.677 224.605 C 315.879 222.518, 315.259 222.498, 247.177 222.278 C 191.457 222.099, 177.934 222.310, 175.500 223.401 M 383.455 231.455 C 378.014 236.895, 381.992 246.510, 389.594 246.295 C 400.800 245.977, 400.708 229, 389.500 229 C 387.021 229, 385.149 229.760, 383.455 231.455 M 177.328 248.500 C 177.333 252.350, 177.513 253.802, 177.730 251.728 C 177.946 249.653, 177.943 246.503, 177.722 244.728 C 177.501 242.952, 177.324 244.650, 177.328 248.500 M 727.335 245.750 C 714.828 252.734, 704.944 270.845, 713 272.019 C 716.156 272.478, 717.024 271.872, 719.113 267.750 C 722.368 261.326, 726.679 256.308, 731.060 253.846 C 734.171 252.098, 735 251.047, 735 248.851 C 735 247.125, 734.266 245.678, 733.066 245.035 C 730.637 243.735, 731.031 243.686, 727.335 245.750 M 427 247.411 C 427 248.862, 425.806 250.827, 424 252.347 C 422.350 253.735, 421 255.419, 421 256.089 C 421 257.617, 428.907 265, 430.544 265 C 432.400 265, 434.268 262.247, 433.397 260.794 C 432.971 260.082, 431.807 258.912, 430.811 258.193 C 428.315 256.392, 428.544 254.529, 431.500 252.592 C 434.467 250.648, 434.664 248.911, 432.171 246.655 C 429.446 244.188, 427 244.546, 427 247.411 M 346.455 255.455 C 345.105 256.805, 344 258.850, 344 260 C 344 262.616, 348.271 267, 350.820 267 C 354.342 267, 358 263.172, 358 259.484 C 358 253.315, 351.028 250.882, 346.455 255.455 M 235.251 255.481 C 227.226 257.740, 222.167 260.703, 216.278 266.591 C 201.054 281.816, 200.953 303.477, 216.022 321.470 C 221.001 327.416, 223.189 331.564, 225.401 339.250 L 227.056 345 245.909 345 L 264.763 345 265.952 340.250 C 267.844 332.698, 270.591 327.297, 276 320.500 C 287.061 306.600, 289.251 292.964, 282.714 278.687 C 274.623 261.013, 253.056 250.468, 235.251 255.481 M 650 257 C 647.742 259.258, 647.377 263.782, 649.250 266.295 C 649.938 267.218, 651.937 268.255, 653.693 268.600 C 656.338 269.120, 657.323 268.754, 659.443 266.467 C 662.542 263.123, 662.653 261.100, 659.927 257.635 C 657.392 254.411, 652.878 254.122, 650 257 M 737.500 276.359 C 735.420 279.535, 736.507 281.817, 740.454 282.557 C 744.126 283.246, 768.590 282.773, 769.295 282 C 770.814 280.336, 770.900 277.043, 769.463 275.605 C 768.137 274.280, 765.343 274, 753.452 274 C 739.419 274, 739.006 274.061, 737.500 276.359 M 381.112 283.581 C 372.342 285.939, 364.435 290.780, 357.844 297.826 C 351.313 304.808, 347.664 311.489, 346.006 319.500 C 345.305 322.884, 345.056 399.813, 345.235 557.500 L 345.500 790.500 349.234 798.320 C 355.919 812.319, 368.259 822.749, 382.542 826.469 C 391.081 828.693, 621.532 828.766, 629.869 826.547 C 647.041 821.977, 659.912 809.618, 665.285 792.542 L 667.500 785.500 667.500 554 L 667.500 322.500 664.845 315.236 C 658.641 298.258, 647.547 287.722, 631.465 283.533 C 622.867 281.293, 389.452 281.338, 381.112 283.581 M 784.557 288.223 C 782.345 291.380, 782.620 293.711, 785.550 296.641 C 787.521 298.612, 788.700 299.041, 790.739 298.529 C 798.339 296.622, 797.289 286, 789.500 286 C 787.134 286, 785.644 286.670, 784.557 288.223 M 233.637 292.506 C 229.358 296.785, 231.568 303, 237.368 303 C 241.263 303, 244 300.452, 244 296.826 C 244 291.903, 237.111 289.032, 233.637 292.506 M 249.400 291.765 C 246.952 293.400, 245.881 296.908, 247.115 299.250 C 248.654 302.173, 249.924 302.966, 253.095 302.985 C 258.280 303.015, 261.001 296.121, 257.171 292.655 C 255.276 290.939, 251.316 290.486, 249.400 291.765 M 738.200 293.200 C 736.363 295.037, 736.772 298.808, 738.934 299.965 C 740.986 301.063, 765.736 301.422, 768.418 300.393 C 770.287 299.676, 770.538 294.938, 768.800 293.200 C 767.980 292.380, 763.133 292, 753.500 292 C 743.867 292, 739.020 292.380, 738.200 293.200 M 379.219 295.125 C 372.209 297.830, 363.318 306.177, 359.500 313.638 L 356.500 319.500 356.500 554 L 356.500 788.500 359.216 794.296 C 362.559 801.431, 372.136 811.253, 378.707 814.287 L 383.500 816.500 506 816.500 L 628.500 816.500 634.390 813.516 C 641.714 809.805, 648.845 802.635, 652.618 795.187 C 655.317 789.862, 655.542 788.482, 656.158 773.500 C 657.226 747.488, 657.106 336.552, 656.026 327.164 C 655.475 322.365, 654.062 316.638, 652.698 313.664 C 649.695 307.122, 642.251 299.762, 635.071 296.236 L 629.500 293.500 507 293.294 C 385.891 293.090, 384.440 293.111, 379.219 295.125 M 499.766 313.750 L 460.031 314.023 458.444 316.444 C 456.639 319.200, 457.640 322.202, 460.957 323.977 C 462.177 324.630, 478.740 325, 506.712 325 C 555.635 325, 555.427 325.027, 554.806 318.677 C 554.414 314.665, 551.165 312.955, 544.500 313.253 C 541.750 313.376, 521.619 313.599, 499.766 313.750 M 132.140 322.358 L 126.849 327.716 132.282 332.358 C 135.271 334.911, 137.938 337, 138.209 337 C 138.480 337, 141.124 334.714, 144.084 331.921 L 149.466 326.842 144.307 321.921 C 141.470 319.214, 138.762 317, 138.290 317 C 137.818 317, 135.051 319.411, 132.140 322.358 M 136.500 326 C 135.684 327.320, 136.777 329, 138.452 329 C 139.915 329, 141.219 326.552, 140.264 325.598 C 139.332 324.665, 137.183 324.895, 136.500 326 M 844.411 334.409 C 837.697 338.930, 835.678 342.022, 837.061 345.660 C 837.637 347.174, 838.036 349.557, 837.948 350.956 C 837.620 356.178, 838.126 357.063, 843.464 360.607 C 849.819 364.827, 851.175 364.718, 858.363 359.408 C 863.038 355.955, 863.202 355.667, 862.610 351.962 C 862.259 349.768, 862.497 347.004, 863.161 345.545 C 864.058 343.578, 864.049 342.462, 863.122 340.741 C 861.803 338.292, 852.438 331, 850.610 331 C 849.985 331, 847.195 332.534, 844.411 334.409 M 847.476 340.039 C 846.466 341.674, 849.511 344.402, 851.496 343.640 C 852.405 343.291, 852.997 342.217, 852.814 341.253 C 852.427 339.223, 848.528 338.336, 847.476 340.039 M 367 545.955 L 367 745.909 370.250 746.519 C 372.038 746.854, 434.925 746.987, 510 746.814 L 646.500 746.500 646.752 546.250 L 647.005 346 507.002 346 L 367 346 367 545.955 M 685.250 354.434 C 682.913 356.855, 681 359.193, 681 359.630 C 681 360.758, 689.225 369, 690.350 369 C 690.864 369, 693.719 366.920, 696.695 364.377 L 702.107 359.754 696.803 354.923 C 693.886 352.265, 691.050 350.078, 690.500 350.062 C 689.950 350.046, 687.587 352.014, 685.250 354.434 M 847.638 351.500 C 846.774 353.751, 847.978 356, 850.048 356 C 852.393 356, 853.299 354.517, 852.497 351.991 C 851.757 349.659, 848.472 349.327, 847.638 351.500 M 230 358.526 L 230 361.052 245.250 360.776 C 260.208 360.505, 260.506 360.457, 260.820 358.250 L 261.139 356 245.570 356 L 230 356 230 358.526 M 689.688 357.646 C 688.216 359.117, 688.990 362.149, 690.750 361.810 C 691.712 361.624, 692.500 360.616, 692.500 359.570 C 692.500 357.580, 690.869 356.464, 689.688 357.646 M 820.040 358.452 C 819.377 359.251, 819.127 360.826, 819.485 361.952 C 820.619 365.526, 827 364.284, 827 360.490 C 827 360.299, 826.293 359.436, 825.429 358.571 C 823.468 356.611, 821.602 356.569, 820.040 358.452 M 871.930 358.584 C 870.151 360.728, 871.943 363.500, 875.109 363.500 C 876.868 363.500, 877.589 362.869, 877.837 361.113 C 878.372 357.335, 874.384 355.628, 871.930 358.584 M 128.746 376.892 L 122.993 382.833 128.567 388.166 C 131.632 391.100, 134.554 393.649, 135.060 393.830 C 135.566 394.012, 138.685 391.580, 141.991 388.427 L 148.001 382.694 142.751 377.097 C 139.863 374.019, 136.825 371.376, 136 371.225 C 135.175 371.074, 131.911 373.624, 128.746 376.892 M 413.219 379.795 C 409.542 383.230, 408.924 388.018, 411.510 393.020 C 414.608 399.010, 422.681 399.969, 428.020 394.982 C 431.020 392.179, 431.216 391.602, 430.764 386.898 C 430.132 380.321, 427.730 377.873, 421.303 377.255 C 416.953 376.837, 416.099 377.105, 413.219 379.795 M 492.653 380 L 489.236 383 465.653 383 C 443.094 383, 442.024 383.087, 441 385 C 439.763 387.311, 441.001 390.403, 443.554 391.382 C 444.439 391.722, 455.204 392, 467.476 392 L 489.788 392 493 395 C 497.405 399.115, 502.687 399.145, 507.234 395.082 C 510.038 392.577, 510.500 391.504, 510.500 387.500 C 510.500 383.496, 510.038 382.423, 507.234 379.918 C 502.688 375.856, 497.339 375.886, 492.653 380 M 538 379.245 C 530.621 383.123, 532.295 395.530, 540.475 397.583 C 546.427 399.077, 551.866 395.421, 552.676 389.382 C 553.148 385.861, 552.822 384.836, 550.363 382.107 C 547.054 378.436, 541.837 377.228, 538 379.245 M 590.500 378.945 C 583.324 381.882, 582.704 392.139, 589.436 396.550 C 595.346 400.422, 604 395.567, 604 388.378 C 604 383.822, 602.626 381.375, 599.020 379.510 C 595.810 377.850, 593.543 377.700, 590.500 378.945 M 134.040 380.452 C 132.482 382.330, 133.082 385.392, 135.083 385.778 C 137.171 386.180, 139.274 381.674, 137.723 380.123 C 136.239 378.639, 135.489 378.706, 134.040 380.452 M 692.741 381.419 C 687.913 383.155, 686.543 384.337, 684.592 388.447 C 683.176 391.432, 683 400.944, 683.004 474.651 C 683.007 553.946, 683.088 557.632, 684.886 560.580 C 689.007 567.338, 683.579 567.005, 788.651 566.956 C 889.053 566.910, 888.078 566.953, 893.173 562.345 C 894.295 561.330, 896.073 558.815, 897.124 556.756 C 898.965 553.148, 899.025 550.059, 898.767 471.579 C 898.503 391.102, 898.476 390.113, 896.438 387.385 C 895.304 385.866, 893.134 383.696, 891.615 382.562 C 888.876 380.516, 888.087 380.498, 792.677 380.284 C 713.980 380.107, 695.817 380.313, 692.741 381.419 M 539.050 384.440 C 537.433 386.388, 538.108 391.053, 540.197 392.361 C 543.024 394.130, 547.439 391.994, 547.822 388.671 C 548.237 385.077, 546.471 383, 543 383 C 541.485 383, 539.707 383.648, 539.050 384.440 M 590.440 385.451 C 588.466 388.465, 589.252 391.338, 592.451 392.796 C 594.435 393.700, 595.320 393.536, 597.432 391.875 C 600.454 389.498, 600.714 386.956, 598.171 384.655 C 595.547 382.280, 592.299 382.615, 590.440 385.451 M 695.555 392.336 C 694.013 393.464, 693.649 395.572, 693.226 405.836 L 692.725 418 789.749 418 L 886.773 418 887.213 415 L 887.654 412 820.577 411.994 L 753.500 411.987 751.750 408.913 C 749.536 405.023, 749.557 404.443, 752 402 C 753.960 400.040, 755.333 400, 821.131 400 L 888.262 400 887.666 396.331 C 887.339 394.313, 886.492 392.295, 885.785 391.846 C 885.078 391.398, 842.399 391.024, 790.941 391.015 C 714.433 391.003, 697.049 391.244, 695.555 392.336 M 704.364 397.170 C 699.694 399.431, 698.650 406.741, 702.455 410.545 C 705.417 413.508, 711.918 413.939, 714.512 411.345 C 719.103 406.754, 718.042 399.751, 712.397 397.392 C 708.542 395.782, 707.301 395.747, 704.364 397.170 M 728.248 397.706 C 724.906 398.350, 723.726 401.268, 724.958 405.845 C 725.844 409.135, 726.561 409.851, 729.996 410.881 C 732.198 411.540, 734 412.512, 734 413.040 C 734 414.736, 739.159 414.065, 742.634 411.917 C 746.409 409.584, 747.721 406.216, 746.062 403.116 C 744.573 400.334, 742.077 399.124, 737.130 398.784 C 734.860 398.628, 733.002 398.163, 733.001 397.750 C 733 396.974, 732.093 396.966, 728.248 397.706 M 125.500 417.207 C 120.572 418.929, 116.335 422.677, 114.102 427.289 C 112.012 431.606, 112 432.173, 112.010 523.566 L 112.020 615.500 114.368 620.500 C 117.074 626.260, 119.110 628.312, 124.254 630.462 C 127.477 631.808, 139.251 631.997, 218.718 631.978 C 304.840 631.957, 309.705 631.861, 313.500 630.110 C 318.341 627.876, 321.388 624.710, 323.452 619.768 C 324.812 616.515, 325 604.747, 325 523.097 C 325 459.972, 324.659 429.227, 323.939 427.315 C 322.360 423.128, 317.065 418.113, 313.044 416.996 C 308.039 415.605, 129.507 415.806, 125.500 417.207 M 124.872 430.651 C 123.850 431.880, 123.420 436.877, 123.186 450.228 L 122.872 468.156 127.605 473.215 C 130.208 475.998, 144.729 489.970, 159.875 504.264 L 187.413 530.253 189.270 525.877 C 192.810 517.533, 198.079 513.857, 206.500 513.857 C 209.428 513.857, 213.172 514.555, 214.822 515.408 C 218.567 517.344, 223.657 523.430, 225.042 527.626 C 225.693 529.599, 226.951 531.022, 228.355 531.374 C 229.600 531.687, 232.060 533.736, 233.822 535.928 C 239.398 542.867, 246.180 543.274, 253.149 537.090 C 257.209 533.487, 257.268 533.342, 256.101 529.807 C 251.838 516.889, 267.246 504.342, 277.983 511.988 C 290.357 520.799, 283.342 540.426, 268.421 538.744 C 264.416 538.293, 263.922 538.514, 261.103 542.021 C 259.441 544.090, 256.015 546.783, 253.490 548.005 C 244.752 552.235, 231.019 549.286, 226.500 542.209 C 225.109 540.030, 223.700 539.065, 221.872 539.039 C 218.542 538.990, 217.353 537.531, 216.106 531.961 C 214.223 523.555, 205.832 520.077, 200.443 525.466 C 198.494 527.415, 198.019 528.832, 198.178 532.216 C 198.289 534.572, 198.051 537.212, 197.648 538.081 C 196.919 539.655, 198.166 540.880, 265.933 605.165 L 282.446 620.830 288.265 620.540 C 291.465 620.381, 294.402 619.932, 294.792 619.542 C 295.181 619.153, 295.620 579.324, 295.767 531.033 L 296.033 443.232 263.767 442.517 C 246.020 442.124, 207.313 442.056, 177.750 442.365 L 124 442.927 124 439.529 C 124 435.586, 125.602 430.873, 127.313 429.786 C 128.140 429.260, 128.158 429.026, 127.372 429.015 C 126.752 429.007, 125.627 429.743, 124.872 430.651 M 717.186 439.239 L 717.500 442.500 759.295 442.761 C 787.758 442.939, 801.733 442.678, 803.106 441.943 C 804.384 441.260, 805.008 440.066, 804.811 438.682 L 804.500 436.500 760.686 436.239 L 716.872 435.979 717.186 439.239 M 449.766 448.702 C 439.522 452.119, 431.953 462.781, 430.055 476.469 C 428.973 484.273, 430.018 498.735, 432.575 511.330 L 434.164 519.160 428.132 524.618 C 419.445 532.480, 410.229 544.346, 406.088 553 C 402.834 559.802, 402.501 561.291, 402.514 569 C 402.526 576.344, 402.907 578.223, 405.313 582.814 C 412.753 597.007, 428.698 604.892, 459.123 609.422 C 465.802 610.416, 469.856 611.498, 470.500 612.458 C 471.050 613.279, 474.335 618.832, 477.799 624.799 C 490.689 646.996, 500.559 653.822, 513.500 649.486 C 521.726 646.731, 529.688 637.481, 539.911 618.802 C 544.083 611.177, 544.168 611.098, 548.812 610.484 C 559.123 609.122, 574.905 605.734, 582 603.361 C 597.173 598.287, 605.933 591.099, 609.964 580.419 C 615.844 564.837, 608.842 547.512, 588.578 527.500 L 580.477 519.500 581.700 513 C 587.327 483.082, 584.758 464.484, 573.574 454.175 C 561.399 442.952, 542.044 444.914, 515.860 460.026 L 506.898 465.198 503.101 462.686 C 495.593 457.717, 480.605 450.817, 473.215 448.927 C 464.220 446.626, 456.220 446.550, 449.766 448.702 M 194.637 450.411 C 189.455 452.331, 185.559 456.248, 183.519 461.590 C 181.574 466.683, 180.375 467.116, 178.907 463.254 C 178.333 461.744, 176.743 459.040, 175.373 457.245 C 167.259 446.607, 148.237 448.008, 143.394 459.600 C 141.324 464.554, 141.565 473.296, 143.829 475.345 C 148.243 479.340, 152 476.160, 152 468.429 C 152 461.910, 154.240 458.998, 159.250 459.004 C 164.758 459.010, 168.684 462.198, 170.432 468.082 C 172.539 475.177, 173.436 476, 179.066 476 C 183.311 476, 184.089 476.342, 185.579 478.864 C 187.876 482.752, 194.356 486.781, 199.571 487.563 C 205.869 488.507, 214.016 484.606, 217.163 479.138 C 219.274 475.470, 219.912 475.062, 223.953 474.795 C 227.955 474.530, 228.745 474.038, 231.655 470 C 239.532 459.069, 241.966 457.632, 249.841 459.257 C 253.185 459.948, 254.562 460.855, 255.841 463.213 C 259.183 469.377, 261.443 471.357, 264.313 470.636 C 271.425 468.851, 266.592 456.979, 256.624 451.748 C 246.646 446.511, 232.056 450.773, 227.115 460.369 C 223.805 466.797, 221.121 466.714, 218.326 460.099 C 214.586 451.245, 204.034 446.930, 194.637 450.411 M 717.184 456.750 L 717.500 459.500 752.638 459.763 C 783.243 459.991, 787.851 459.830, 788.357 458.513 C 788.676 457.681, 788.678 456.325, 788.362 455.500 C 787.865 454.206, 782.924 454, 752.327 454 L 716.867 454 717.184 456.750 M 194.490 462.195 C 190.996 466.347, 191.558 471.262, 195.981 475.250 C 199.291 478.234, 201.541 478.622, 205.387 476.870 L 207.867 475.739 205.784 472.922 C 203.807 470.248, 203.787 469.975, 205.374 467.552 C 206.294 466.149, 207.486 465, 208.023 465 C 208.560 465, 209 464.351, 209 463.557 C 209 461.291, 204.911 459, 200.866 459 C 197.946 459, 196.618 459.665, 194.490 462.195 M 456 459.885 C 447.593 461.635, 443.205 468.256, 442.271 480.600 C 441.724 487.836, 443.533 506.627, 445.007 509.011 C 445.454 509.734, 449.575 507.052, 456.440 501.571 C 462.344 496.856, 473.660 488.660, 481.587 483.356 C 489.514 478.053, 496 473.423, 496 473.067 C 496 471.894, 482.237 464.962, 475.063 462.521 C 466.766 459.700, 460.833 458.879, 456 459.885 M 548 459.647 C 541.069 460.983, 519 471.184, 519 473.051 C 519 473.506, 523.612 477.039, 529.250 480.901 C 544.865 491.598, 560.811 503.548, 565.637 508.170 C 567.363 509.822, 568.997 510.797, 569.270 510.337 C 570.130 508.883, 570.976 503.795, 571.936 494.310 C 573.587 477.995, 570.497 466.324, 563.357 461.912 C 560.082 459.888, 552.528 458.773, 548 459.647 M 717.183 473.740 L 717.500 476.500 763.500 476.500 L 809.500 476.500 809.500 474 L 809.500 471.500 763.183 471.240 L 716.865 470.980 717.183 473.740 M 237.500 474.569 C 229.557 478.692, 225.126 487.156, 226.863 494.888 C 229.333 505.879, 241.201 512.486, 251.446 508.574 C 263.102 504.122, 267.384 491.223, 260.606 480.981 C 256.026 474.060, 244.593 470.888, 237.500 474.569 M 498.500 486.705 C 458.933 514.537, 449 522.207, 449 524.923 C 449 530.979, 464.923 572.631, 475.482 594.194 L 478.232 599.812 490.866 600.546 C 507.327 601.503, 535.058 600.406, 536.589 598.737 C 537.776 597.444, 547.382 576.249, 553.012 562.500 C 556.722 553.442, 566 526.203, 566 524.371 C 566 523.077, 541.875 504.655, 525.500 493.446 C 520 489.680, 513.745 485.340, 511.600 483.800 C 509.455 482.260, 507.430 481.017, 507.100 481.039 C 506.770 481.060, 502.900 483.610, 498.500 486.705 M 238.806 485.040 C 236.254 487.592, 235.869 488.593, 236.405 491.277 C 236.757 493.035, 237.725 495.154, 238.557 495.985 C 239.906 497.335, 240.397 497.309, 243.123 495.744 C 244.803 494.780, 246.657 494.288, 247.243 494.650 C 247.849 495.025, 248.019 494.839, 247.635 494.219 C 246.869 492.979, 251.532 487.868, 252.528 488.856 C 252.886 489.210, 252.638 488.312, 251.979 486.860 C 249.519 481.445, 243.265 480.581, 238.806 485.040 M 783.930 504.584 C 782.977 505.732, 782.904 506.626, 783.666 507.834 C 784.565 509.261, 787.107 509.539, 801.378 509.774 C 811.735 509.945, 818.790 509.648, 820.020 508.989 C 822.391 507.720, 822.633 504.457, 820.418 503.607 C 819.548 503.273, 811.278 503, 802.041 503 C 787.936 503, 785.034 503.254, 783.930 504.584 M 726.229 511.679 C 722.347 513.211, 720.453 524, 723.097 529.517 C 727.875 539.486, 739.498 530.279, 736.167 519.163 C 734.543 513.742, 729.887 510.236, 726.229 511.679 M 786 519.729 C 783.716 520.598, 783.037 522.200, 784.105 524.196 C 785.013 525.893, 787.702 526, 829.453 526 C 853.864 526, 874.548 525.727, 875.418 525.393 C 877.469 524.606, 877.469 520.394, 875.418 519.607 C 873.420 518.840, 788.028 518.957, 786 519.729 M 497 523.081 C 488.006 527.152, 483.063 534.343, 482.244 544.548 C 480.744 563.239, 500.437 576.683, 517.500 568.617 C 529.171 563.099, 534.624 550.490, 530.824 537.807 C 529.280 532.654, 523.062 525.692, 517.673 523.084 C 511.969 520.323, 503.096 520.321, 497 523.081 M 501.500 533.958 C 496.578 536.453, 494 540.778, 494 546.539 C 494 550.248, 494.586 551.532, 497.845 554.958 C 501.323 558.613, 502.161 559, 506.617 559 C 512.968 559, 518.414 554.892, 520.032 548.880 C 520.958 545.443, 520.815 544.264, 519.042 540.683 C 515.242 533.008, 508.486 530.418, 501.500 533.958 M 430.382 540.506 C 415.719 556.791, 412.001 567.174, 417.079 577.663 C 420.917 585.592, 428.794 590.222, 445.557 594.402 C 460.545 598.140, 463.441 598.560, 462.728 596.892 C 462.401 596.126, 459.587 589.875, 456.475 583 C 450.119 568.958, 444.562 554.396, 441.019 542.500 C 439.708 538.100, 438.327 534.132, 437.950 533.682 C 437.572 533.232, 434.167 536.303, 430.382 540.506 M 574.014 540.130 C 572.835 544.183, 571.620 548.400, 571.315 549.500 C 569.972 554.329, 558.690 581.725, 554.995 589.130 C 552.762 593.606, 551.103 597.437, 551.309 597.643 C 552.071 598.404, 568.558 594.779, 576.403 592.126 C 586.480 588.717, 592.143 585.166, 596.005 579.834 C 600.024 574.286, 600.191 566.100, 596.448 558.060 C 593.874 552.531, 585.994 542.241, 579.653 536.130 L 576.156 532.759 574.014 540.130 M 786 535.658 C 783.698 536.643, 783.043 538.211, 784.105 540.196 C 784.999 541.867, 787.082 542, 812.335 542 C 840.624 542, 842 541.805, 842 537.800 C 842 536.134, 840.674 536, 824.250 535.995 C 814.487 535.992, 802.225 535.771, 797 535.503 C 791.775 535.236, 786.825 535.306, 786 535.658 M 155.667 552.667 C 155.300 553.033, 155 554.209, 155 555.280 C 155 557.009, 154.516 557.155, 150.674 556.578 C 144.870 555.708, 143 556.565, 143 560.094 C 143 562.439, 142.351 563.244, 139.500 564.436 C 136.762 565.580, 136 566.469, 136 568.520 C 136 569.963, 136.690 571.833, 137.534 572.677 C 139.776 574.919, 138.233 579.003, 134.669 580.261 C 134.212 580.422, 134.597 582.451, 135.525 584.771 C 136.453 587.090, 137.643 588.721, 138.169 588.396 C 138.695 588.070, 140.015 588.608, 141.101 589.591 C 142.550 590.903, 142.913 592.121, 142.463 594.170 C 141.922 596.633, 142.270 597.161, 145.435 598.670 C 147.990 599.889, 149.329 600.071, 150.094 599.306 C 151.722 597.678, 155.041 598.977, 156.052 601.637 C 156.764 603.508, 157.689 604, 160.500 604 C 163.332 604, 164.235 603.512, 164.967 601.586 C 166.064 598.701, 169.523 597.359, 171.543 599.036 C 174.040 601.108, 177.967 597.737, 177.813 593.654 C 177.653 589.384, 178.543 588, 181.451 588 C 183.081 588, 183.965 587.275, 184.387 585.593 C 184.720 584.269, 185.267 582.469, 185.603 581.593 C 186.008 580.538, 185.664 580, 184.586 580 C 183.690 580, 182.453 578.893, 181.837 577.541 C 180.940 575.572, 181.048 574.576, 182.378 572.545 C 184.661 569.061, 183.588 565.401, 179.908 564.118 C 177.746 563.364, 177 562.464, 177 560.611 C 177 557.377, 175.506 556.500, 170 556.500 C 166.095 556.500, 165.458 556.203, 165.180 554.250 C 164.906 552.318, 164.257 552, 160.597 552 C 158.252 552, 156.033 552.300, 155.667 552.667 M 154.316 565.943 C 146.794 569.359, 144.474 578.584, 149.302 585.880 C 157.034 597.564, 175.990 588.939, 172.910 575.138 C 171.935 570.769, 167.538 566.244, 163.057 564.999 C 158.618 563.766, 159.266 563.696, 154.316 565.943 M 762.989 583.250 C 760.377 587.534, 760.480 588.848, 763.692 592.200 L 766.383 595.010 764.155 597.755 C 762.930 599.265, 761.666 601.288, 761.347 602.250 C 760.992 603.321, 759.745 604.005, 758.133 604.014 C 752.795 604.041, 751 605.065, 751 608.081 C 751 611.861, 753.854 613.410, 758.469 612.136 C 761.068 611.419, 762.185 611.518, 763.035 612.542 C 763.654 613.288, 765.681 614.400, 767.541 615.013 C 769.910 615.795, 771.611 617.382, 773.226 620.315 C 776.289 625.879, 778.874 626.189, 782.773 621.459 C 785.725 617.878, 785.828 617.841, 788.320 619.474 C 789.779 620.430, 792.270 621.002, 794.179 620.819 C 798.604 620.394, 799.279 616.550, 795.545 613.043 C 792.089 609.796, 792.069 604.259, 795.500 600.182 C 800.235 594.556, 797.983 590.082, 791.339 591.917 C 787.684 592.926, 787.387 592.815, 783.482 588.983 C 781.250 586.792, 778.677 585, 777.763 585 C 776.849 585, 774.673 586.462, 772.927 588.250 C 770.611 590.622, 770.192 590.832, 771.377 589.027 C 773.462 585.852, 773.452 585.780, 770.548 582.646 C 767.312 579.155, 765.392 579.308, 762.989 583.250 M 722.021 584.062 C 717.496 585.966, 716 588.067, 716 592.515 C 716 595.339, 716.812 597.917, 718.470 600.360 C 721.800 605.268, 719.960 605, 716 600 C 712.770 595.922, 710.439 595.159, 706.934 597.035 C 704.149 598.526, 704.331 604.296, 707.250 607.030 C 708.487 608.189, 710.682 609.377, 712.127 609.669 C 714.701 610.190, 714.743 610.328, 714.241 616.583 C 713.731 622.937, 713.746 622.981, 717.664 626.899 C 722.809 632.045, 727.338 632.983, 733.239 630.126 C 738.282 627.685, 741 623.636, 741 618.564 C 741 613.793, 738.700 608.445, 736.035 607.019 C 733.912 605.883, 733.917 605.859, 736.951 602.404 C 743.805 594.597, 739.617 584.120, 729.343 583.371 C 726.679 583.177, 723.384 583.488, 722.021 584.062 M 818.035 586.934 C 816.401 589.988, 816.806 591.826, 819.500 593.592 C 821.816 595.109, 822.184 595.109, 824.500 593.592 C 825.875 592.691, 827 591.096, 827 590.048 C 827 585.528, 820.075 583.123, 818.035 586.934 M 841.381 586.851 C 837.493 589.295, 835.299 594.728, 837.367 596.795 C 838.513 597.942, 839.191 597.968, 841.113 596.940 C 842.403 596.249, 844.063 595.080, 844.801 594.342 C 847.954 591.189, 854 593.594, 854 598 C 854 601.218, 851.749 603, 847.682 603 C 846.037 603, 845.053 603.688, 844.685 605.096 C 843.921 608.019, 844.880 610, 847.060 610 C 848.075 610, 850.052 610.522, 851.453 611.161 C 853.434 612.063, 854 613.055, 854 615.625 C 854 621.090, 847.418 623.094, 844.434 618.539 C 842.613 615.761, 840.067 614.653, 837.641 615.584 C 833.337 617.236, 838.146 625.903, 844.536 628.012 C 850.569 630.003, 858.878 627.071, 861.483 622.033 C 863.774 617.603, 863.402 612.631, 860.524 609.210 C 858.090 606.319, 858.081 606.237, 859.967 604.530 C 864.110 600.780, 863.362 592.568, 858.457 587.960 C 854.961 584.675, 845.789 584.079, 841.381 586.851 M 873.888 586.443 C 871.037 588.054, 868.619 592.781, 869.173 595.659 C 869.712 598.459, 872.709 598.423, 876.092 595.576 C 879.499 592.709, 881.747 592.363, 884.395 594.299 C 885.576 595.163, 886.059 596.586, 885.836 598.543 C 885.540 601.140, 884.732 601.794, 879.008 604.076 C 871.401 607.109, 869.156 610.093, 868.309 618.295 C 867.354 627.544, 867.998 628, 882 628 C 892.771 628, 894.030 627.812, 894.965 626.066 C 896.304 623.564, 896.288 623.431, 894.429 621.571 C 893.264 620.407, 890.803 620, 884.929 620 L 877 620 877 617.122 C 877 613.725, 878.085 612.754, 883.657 611.163 C 888.217 609.860, 893.558 604.611, 894.617 600.391 C 895.512 596.824, 893.526 590.843, 890.503 588.003 C 887.328 585.020, 877.960 584.141, 873.888 586.443 M 725.187 591.242 C 725.401 593.456, 726.089 594.595, 727.356 594.836 C 730.004 595.338, 731.358 593.563, 730.608 590.573 C 730.126 588.652, 729.317 588, 727.418 588 C 725.151 588, 724.907 588.353, 725.187 591.242 M 774.655 599.829 C 772.143 602.604, 772.560 606.665, 775.557 608.629 C 777.980 610.217, 778.256 610.200, 780.807 608.302 C 784.501 605.554, 784.714 602.707, 781.420 600.115 C 778.125 597.524, 776.792 597.467, 774.655 599.829 M 685.245 606.250 C 683.123 608.903, 682.830 612.091, 684.477 614.606 C 686.712 618.016, 692.854 617.710, 694.645 614.099 C 695.923 611.520, 694.905 607.196, 692.687 605.786 C 690.817 604.596, 686.345 604.875, 685.245 606.250 M 486.001 613.206 C 485.999 615.317, 496.459 631.201, 500.517 635.250 C 503.740 638.466, 508.672 638.916, 512.586 636.352 C 514.771 634.920, 527.125 617.441, 528.521 613.806 C 528.925 612.756, 524.803 612.500, 507.512 612.500 C 495.681 612.500, 486.001 612.818, 486.001 613.206 M 724.185 616.690 C 722.911 619.120, 724.474 623.004, 726.718 622.985 C 729.791 622.958, 731.175 621.412, 730.830 618.391 C 730.569 616.101, 729.942 615.436, 727.817 615.190 C 726.023 614.983, 724.820 615.479, 724.185 616.690 M 817.950 622.560 C 817.027 623.672, 816.926 624.891, 817.596 626.810 C 818.811 630.284, 822.859 630.919, 825.461 628.043 C 827.001 626.342, 827.123 625.566, 826.180 623.496 C 824.848 620.572, 820.053 620.026, 817.950 622.560 M 868 644.115 C 868 644.728, 866.413 646.684, 864.472 648.461 C 860.758 651.864, 860.587 654.417, 864.003 655.501 C 865.003 655.818, 866.547 657.185, 867.434 658.539 C 869.611 661.863, 870.587 661.667, 875.117 656.999 C 879.610 652.369, 879.964 650.396, 876.577 648.853 C 875.244 648.246, 873.886 646.681, 873.558 645.375 C 873.131 643.673, 872.258 643, 870.481 643 C 869.116 643, 868 643.502, 868 644.115 M 692 644.820 C 688.292 646.500, 685.116 649.314, 684.121 651.799 C 682.419 656.048, 682.118 796.544, 683.802 800.559 C 686.621 807.282, 683.235 807, 761.154 806.998 C 839.813 806.997, 836.612 807.280, 840.248 800 C 841.864 796.766, 841.997 791.075, 841.998 725.151 C 842 646.929, 842.177 649.308, 836.080 645.706 C 833.428 644.140, 827.462 644.006, 763.346 644.070 C 724.931 644.109, 692.825 644.446, 692 644.820 M 171.873 651.684 C 165.743 655.488, 166 652.133, 166 728.454 C 166 805.137, 165.710 801.517, 172.235 806.171 L 175.500 808.500 245.598 808.500 C 321.156 808.500, 318.407 808.690, 322.500 803.188 C 324.450 800.567, 324.507 798.718, 324.769 728.669 L 325.039 656.839 321.619 653.419 L 318.200 650 246.350 650.027 C 181.698 650.051, 174.237 650.217, 171.873 651.684 M 571.364 656.170 C 566.779 658.390, 565.539 666.873, 569.131 671.440 C 573.081 676.461, 579 677.033, 579 672.393 C 579 670.420, 578.492 670, 576.107 670 C 573.096 670, 572 668.563, 572 664.618 C 572 661.764, 573.795 660, 576.700 660 C 578.487 660, 579 659.442, 579 657.500 C 579 655.423, 578.535 655.011, 576.250 655.068 C 574.737 655.105, 572.539 655.601, 571.364 656.170 M 588.667 655.667 C 586.827 657.506, 588.134 659.887, 591.149 660.187 C 595.447 660.614, 596.962 663.194, 594.985 666.717 C 594.152 668.202, 592.352 669.679, 590.985 669.999 C 589.420 670.366, 588.382 671.400, 588.180 672.791 C 587.909 674.668, 588.332 675, 590.996 675 C 595.455 675, 597.950 673.363, 599.634 669.334 C 601.454 664.977, 600.109 660.017, 596.293 657.016 C 593.771 655.032, 589.973 654.360, 588.667 655.667 M 694.571 656.571 C 693.707 657.436, 693.015 658.673, 693.033 659.321 C 693.052 659.970, 693.896 659.507, 694.909 658.293 C 695.923 657.078, 696.999 656.332, 697.301 656.634 C 697.603 656.936, 698.671 656.706, 699.675 656.122 C 701.292 655.182, 701.194 655.057, 698.821 655.030 C 697.348 655.014, 695.436 655.707, 694.571 656.571 M 708.355 656.518 C 707.219 659.478, 709.188 660, 721.309 659.946 C 735.930 659.881, 748.992 658.631, 749.869 657.212 C 750.220 656.645, 751.855 655.976, 753.503 655.725 C 755.151 655.475, 745.787 655.239, 732.693 655.201 C 713.274 655.144, 708.789 655.387, 708.355 656.518 M 773.500 655.902 C 770.832 656.597, 771.195 656.771, 776.772 657.473 C 780.222 657.908, 783.286 658.654, 783.581 659.132 C 783.877 659.609, 790.166 660, 797.559 660 C 810.866 660, 810.999 659.977, 810.884 657.750 C 810.797 656.057, 810.655 655.933, 810.311 657.250 C 810.059 658.212, 809.450 659, 808.958 659 C 808.466 659, 808.322 658.325, 808.638 657.500 C 809.127 656.226, 807.641 656, 798.754 656 C 793.001 656, 785.640 655.802, 782.397 655.560 C 779.154 655.318, 775.150 655.472, 773.500 655.902 M 130.716 661.485 L 125.932 666.754 131.074 671.377 C 133.902 673.920, 136.522 676, 136.896 676 C 137.269 676, 139.791 673.750, 142.500 671 L 147.425 666 142.500 661 C 139.791 658.250, 137.108 656.049, 136.538 656.108 C 135.967 656.167, 133.347 658.587, 130.716 661.485 M 135.676 665.402 C 135.002 667.159, 135.807 668, 138.167 668 C 140.280 668, 140.523 666.923, 138.800 665.200 C 137.227 663.627, 136.335 663.684, 135.676 665.402 M 427.873 691.684 C 420.466 696.281, 420.237 707.649, 427.456 712.379 C 430.859 714.609, 437.991 714.707, 441.254 712.569 C 448.146 708.053, 447.293 695.505, 439.810 691.353 C 436.614 689.579, 431.014 689.734, 427.873 691.684 M 472.763 691.565 C 467.186 694.591, 465.359 702.796, 468.950 708.686 C 471.294 712.530, 473.848 714.018, 478.400 714.189 C 485.887 714.470, 491 709.746, 491 702.546 C 491 692.767, 481.305 686.930, 472.763 691.565 M 517.225 691.946 C 512.064 695.185, 510.454 702.109, 513.494 707.989 C 515.687 712.230, 518.824 714, 524.146 714 C 532.696 714, 537.772 706.898, 535.070 698.712 C 532.546 691.063, 523.872 687.774, 517.225 691.946 M 733.736 692.407 C 731.582 694.561, 730.360 704.524, 732.006 706.508 C 733.717 708.569, 734.168 708.446, 738.467 704.750 C 740.546 702.962, 743.604 700.344, 745.263 698.931 L 748.279 696.362 744.489 694.126 C 739.240 691.029, 735.683 690.460, 733.736 692.407 M 783.359 692.923 C 781.632 693.976, 779.940 695.287, 779.601 695.837 C 779.262 696.386, 781.984 699.325, 785.650 702.368 C 791.077 706.873, 792.658 707.718, 794.158 706.915 C 796.249 705.797, 796.514 702.392, 794.951 696.762 C 793.324 690.904, 789.012 689.476, 783.359 692.923 M 862.750 697.605 C 859.587 700.665, 857 703.484, 857 703.869 C 857 704.879, 867.397 715, 868.435 715 C 869.247 715, 880.169 705.203, 880.774 703.932 C 881.104 703.238, 870.163 691.991, 869.186 692.020 C 868.809 692.031, 865.913 694.544, 862.750 697.605 M 208.718 711.250 C 208.392 720.737, 208.392 736.938, 208.717 747.250 L 209.308 766 245.654 766 L 282 766 282 730 L 282 694 245.655 694 L 209.311 694 208.718 711.250 M 557 698 C 555.900 699.100, 555 700.900, 555 702 C 555 703.100, 555.900 704.900, 557 706 C 558.100 707.100, 559.900 708, 561 708 C 563.494 708, 567 704.604, 567 702.189 C 567 699.724, 563.366 696, 560.961 696 C 559.882 696, 558.100 696.900, 557 698 M 586.200 698.200 C 584.523 699.877, 584.702 704.508, 586.503 706.003 C 587.330 706.689, 589.128 707.250, 590.500 707.250 C 593.908 707.250, 596 705.282, 596 702.078 C 596 698.563, 594.306 697, 590.500 697 C 588.795 697, 586.860 697.540, 586.200 698.200 M 136.455 702.455 C 133.286 705.623, 133.327 709.418, 136.566 712.657 C 138.636 714.727, 139.748 715.105, 142.316 714.609 C 146.267 713.846, 149 710.689, 149 706.889 C 149 700.479, 141.191 697.718, 136.455 702.455 M 867.200 701.200 C 865.640 702.760, 865.684 704.186, 867.363 706.482 C 868.665 708.262, 868.806 708.225, 870.482 705.668 C 871.899 703.505, 871.998 702.703, 870.996 701.495 C 869.495 699.686, 868.770 699.630, 867.200 701.200 M 758.831 701.978 C 755.245 703.061, 743.575 711.464, 741.774 714.261 C 739.958 717.080, 738.011 722.678, 738.632 723.298 C 739.965 724.632, 746.679 721.742, 749.863 718.465 C 751.829 716.440, 754.452 714.399, 755.691 713.927 C 757.008 713.427, 758.188 711.914, 758.532 710.285 C 759.493 705.725, 760.563 704.500, 763.581 704.500 C 766.047 704.500, 766.666 705.104, 768.057 708.868 C 768.944 711.270, 770.532 713.702, 771.585 714.272 C 772.638 714.841, 775.402 717.038, 777.728 719.154 C 780.742 721.896, 782.854 723, 785.086 723 C 788.001 723, 788.170 722.811, 787.530 720.250 C 786.256 715.143, 782.712 710.770, 776.698 706.883 C 771.288 703.386, 765.142 700.879, 762.500 701.092 C 761.950 701.136, 760.299 701.535, 758.831 701.978 M 719.940 716.702 C 713.473 721.093, 709.474 727.970, 712.020 730.323 C 713.003 731.232, 713.133 731.215, 712.588 730.250 C 712.200 729.563, 712.359 729, 712.941 729 C 713.523 729, 713.888 728.458, 713.750 727.795 C 713.612 727.133, 714.020 726.570, 714.655 726.545 C 715.862 726.498, 723.445 716.111, 722.767 715.434 C 722.554 715.221, 721.281 715.791, 719.940 716.702 M 759 723 C 756.363 725.637, 756.477 727.568, 759.444 730.535 C 761.055 732.146, 762.505 732.761, 763.694 732.338 C 766.613 731.300, 769 728.829, 769 726.845 C 769 724.401, 765.509 721, 763 721 C 761.900 721, 760.100 721.900, 759 723 M 784.017 731.831 C 781.549 732.065, 779.158 733.449, 775.810 736.581 C 773.212 739.011, 770.652 741, 770.122 741 C 769.592 741, 768.873 742.303, 768.523 743.896 C 767.752 747.407, 764.779 750.298, 762.413 749.838 C 761.458 749.652, 760.183 748.031, 759.578 746.235 C 758.961 744.400, 757.111 742.138, 755.356 741.070 C 753.637 740.025, 751.001 737.557, 749.497 735.585 C 747.082 732.419, 746.243 732, 742.314 732 C 738.169 732, 737.911 732.154, 738.535 734.250 C 739.956 739.028, 743.793 743.228, 751.194 748.107 C 762.649 755.658, 766.162 755.343, 779.727 745.551 C 783.869 742.561, 788.477 735.293, 787.828 732.773 C 787.619 731.964, 786.232 731.620, 784.017 731.831 M 732.035 748.934 C 730.581 751.651, 730.747 755.459, 732.504 759.663 C 733.956 763.139, 734.150 763.243, 738.156 762.706 C 740.653 762.371, 743.270 761.184, 744.729 759.726 L 747.152 757.302 740.598 752.151 C 736.993 749.318, 733.824 747, 733.557 747 C 733.289 747, 732.605 747.870, 732.035 748.934 M 785.500 752.428 C 782.200 755.386, 779.725 757.991, 780 758.217 C 786.019 763.161, 791.497 764.516, 793.876 761.649 C 796.905 758, 796.028 746.958, 792.715 747.024 C 792.047 747.038, 788.800 749.469, 785.500 752.428 M 495.220 759.578 C 474.892 769.708, 476.792 798.102, 498.285 805.380 C 504.172 807.373, 507.313 807.412, 513.438 805.569 C 525.042 802.076, 531.465 793.286, 531.353 781.051 C 531.289 774.029, 529.959 770.481, 525.327 764.977 C 518.692 757.092, 505.100 754.654, 495.220 759.578 M 500.500 768.995 C 495.271 771.601, 491.987 776.482, 492.045 781.562 L 492.089 785.500 493.795 783.163 C 497.688 777.827, 502.687 772.566, 505.500 770.844 C 507.150 769.834, 507.998 769.006, 507.385 769.004 C 506.772 769.002, 505.052 769.958, 503.564 771.129 C 501.476 772.770, 500.588 772.986, 499.679 772.069 C 498.771 771.155, 498.902 771.035, 500.250 771.548 C 501.212 771.914, 502 771.764, 502 771.214 C 502 770.664, 503.688 769.514, 505.750 768.658 C 508.999 767.311, 509.166 767.096, 507 767.052 C 505.625 767.024, 502.700 767.899, 500.500 768.995 M 178.516 782 C 179.712 786.313, 182.213 788.016, 188.051 788.489 L 193.500 788.931 188.232 787.886 C 183.856 787.019, 182.529 786.220, 180.393 783.171 C 178.311 780.198, 177.954 779.975, 178.516 782 M 332.250 822.951 C 329.913 825.562, 328 827.993, 328 828.352 C 328 829.127, 335.808 836.337, 337.219 836.866 C 337.756 837.067, 340.402 835.058, 343.100 832.402 L 348.003 827.572 343.289 822.786 C 340.696 820.154, 338.108 818.046, 337.538 818.102 C 336.967 818.158, 334.587 820.340, 332.250 822.951 M 755 824.704 C 750.597 826.248, 749.453 833.803, 753.223 836.443 C 754.445 837.299, 756.265 838, 757.268 838 C 759.870 838, 764 833.521, 764 830.700 C 764 826.907, 758.730 823.396, 755 824.704 M 336.688 825.646 C 335.272 827.061, 336.073 829, 338.073 829 C 339.471 829, 340.041 828.457, 339.823 827.333 C 339.466 825.492, 337.759 824.574, 336.688 825.646 M 702.035 827.934 C 701.466 828.998, 701 830.316, 701 830.863 C 701 832.822, 704.196 835, 707.071 835 C 709.941 835, 710 835.107, 710 840.300 C 710 846.070, 711.169 848, 714.665 848 C 717.593 848, 719 845.263, 719 839.566 C 719 835.084, 719.060 835, 722.250 834.985 C 728.692 834.956, 732.831 830.911, 729.960 827.452 C 729.021 826.321, 725.919 826, 715.913 826 C 704.239 826, 702.976 826.176, 702.035 827.934 M 271.580 829.116 C 268.117 831.839, 268.342 836.442, 272.073 839.215 C 275.456 841.728, 279.568 840.736, 281.535 836.932 C 283.510 833.114, 283.404 832.313, 280.545 829.455 C 277.535 826.444, 275.094 826.351, 271.580 829.116 M 678.667 830.667 C 677.294 832.040, 678.069 835.967, 679.907 836.950 C 681.355 837.725, 682.349 837.538, 684.034 836.173 C 687.119 833.675, 685.967 830, 682.099 830 C 680.578 830, 679.033 830.300, 678.667 830.667 M 365.500 838.417 C 361.773 840.081, 357.469 844.596, 356.064 848.315 C 355.479 849.863, 355 856.659, 355 863.417 C 355 874.541, 355.215 876.024, 357.274 879.078 C 358.524 880.934, 361.066 883.476, 362.922 884.726 L 366.296 887 508.068 887 L 649.840 887 661.170 883.106 C 673.255 878.952, 699.722 869.025, 704.195 866.968 C 705.677 866.287, 707.121 865.128, 707.402 864.393 C 708.504 861.523, 707.047 860.841, 665.500 844.768 C 661.100 843.066, 655.377 840.622, 652.783 839.336 L 648.066 837 508.283 837.039 C 393.722 837.071, 367.959 837.320, 365.500 838.417 M 627.827 851.987 C 628.169 855.574, 627.897 856.151, 625.110 857.737 C 623.407 858.707, 622.010 859.815, 622.006 860.199 C 622.003 860.584, 623.575 862.100, 625.500 863.568 C 629.205 866.394, 630.079 870.116, 627.965 874.066 C 626.970 875.924, 627.365 876, 637.965 876 L 649 876 649 862.617 C 649 846.985, 649.938 848.036, 635.974 848.014 L 627.447 848 627.827 851.987 M 298.750 850.088 C 297.735 850.675, 297 852.286, 297 853.922 C 297 856.581, 296.707 856.774, 291.978 857.228 C 286.356 857.768, 286.496 857.693, 285.590 860.645 C 284.635 863.757, 287.363 866, 292.103 866 C 295.002 866, 296.208 866.469, 296.604 867.750 C 297.759 871.490, 298.823 872.500, 301.609 872.500 C 304.008 872.500, 304.663 871.947, 305.457 869.250 C 306.413 866.001, 306.415 866, 313.135 866 C 319.949 866, 323 864.608, 323 861.500 C 323 858.361, 319.955 857, 312.929 857 C 306.415 857, 305.999 856.865, 305.985 854.750 C 305.976 853.513, 305.639 851.998, 305.235 851.385 C 304.093 849.652, 300.684 848.971, 298.750 850.088 M 367.035 850.934 C 366.466 851.998, 366 854.023, 366 855.434 C 366 857.700, 366.409 858, 369.500 858 C 372.967 858, 372.999 857.959, 372.900 853.750 C 372.816 850.140, 372.680 849.876, 372 852 C 371.560 853.375, 371.155 853.885, 371.100 853.133 C 371.034 852.228, 370.241 851.958, 368.750 852.334 C 366.703 852.849, 366.658 852.782, 368.250 851.590 C 370.180 850.145, 370.527 849, 369.035 849 C 368.505 849, 367.605 849.870, 367.035 850.934 M 659 863 C 659 867.950, 659.337 872.007, 659.750 872.015 C 661.817 872.057, 683.889 863.497, 683.246 862.903 C 682.533 862.242, 660.552 854, 659.505 854 C 659.227 854, 659 858.050, 659 863" stroke="none" fill="#1a548e" fill-rule="evenodd"/><path d="M 0 512.001 L 0 1024.002 512.250 1023.751 L 1024.500 1023.500 1024.751 511.750 L 1025.002 0 512.501 0 L 0 0 0 512.001 M 0.496 512.500 C 0.496 794.100, 0.610 909.151, 0.750 768.168 C 0.890 627.186, 0.890 396.786, 0.750 256.168 C 0.610 115.551, 0.496 230.900, 0.496 512.500 M 524.500 149.910 C 519.629 151.116, 517.319 152.749, 514.839 156.737 L 512.500 160.500 512.500 208.544 C 512.500 261.951, 512.228 259.729, 519.304 264.044 C 522.354 265.904, 524.685 265.993, 570.349 265.996 C 623.852 266, 622.878 266.120, 626.836 259.078 C 628.971 255.279, 629 254.586, 628.996 207.364 C 628.993 161.656, 628.905 159.356, 627.040 156.299 C 622.850 149.427, 623.564 149.519, 573 149.333 C 547.975 149.241, 526.150 149.501, 524.500 149.910 M 381.500 153.965 C 367.533 155.374, 350.525 161.880, 338.656 170.353 C 331.946 175.144, 318.133 189.093, 314.982 194.262 C 313.896 196.043, 313.006 198.665, 313.004 200.089 C 312.995 205.983, 323.902 214.994, 329.380 213.620 C 330.660 213.298, 336.610 208.171, 342.603 202.226 C 354.427 190.496, 363.856 184.575, 375.564 181.525 C 384.437 179.214, 396.937 179.583, 406.685 182.444 C 418.134 185.805, 422.284 184.416, 425.897 176.017 C 428.379 170.248, 428.508 167.884, 426.549 164.095 C 423.037 157.303, 399.925 152.106, 381.500 153.965 M 461.558 156.431 C 444.687 162.702, 440.852 183.882, 454.428 195.803 C 459.984 200.681, 470.398 202.359, 477.310 199.491 C 478.934 198.817, 479.088 199.243, 478.810 203.620 C 478.570 207.393, 478.160 208.403, 477 208.073 C 469.321 205.884, 460.082 207.564, 454.234 212.212 C 449.275 216.152, 447.253 219.466, 445.936 225.808 C 442.496 242.380, 457.508 256.956, 473.955 253.011 C 487.845 249.679, 495.321 235.665, 490.500 222 C 489.456 219.041, 489 213.720, 489 204.500 C 489 195.280, 489.456 189.959, 490.500 187 C 493.519 178.443, 491.878 167.715, 486.702 162.166 C 481.170 156.235, 469.343 153.538, 461.558 156.431 M 557.103 160.437 C 557.810 161.144, 577.006 161.327, 577.700 160.634 C 578.048 160.285, 573.458 160, 567.500 160 C 561.542 160, 556.863 160.197, 557.103 160.437 M 380.500 164.216 C 361.404 166.427, 341.181 178.063, 327.003 194.996 C 323.269 199.457, 323.235 199.572, 325.010 201.765 L 326.817 203.995 333.658 196.871 C 346.441 183.559, 359.722 175.211, 374.060 171.475 C 382.434 169.293, 403.082 169.868, 410.304 172.484 C 415.654 174.423, 415.845 174.374, 416.228 170.966 C 416.476 168.767, 415.843 168.369, 409 166.414 C 400.098 163.871, 390.125 163.102, 380.500 164.216 M 465.828 172.036 C 463.274 173.527, 462.526 178.627, 464.435 181.541 C 465.691 183.458, 466.906 184, 469.952 184 C 474.541 184, 477 181.959, 477 178.151 C 477 172.238, 471.057 168.985, 465.828 172.036 M 651.280 180.020 C 646.966 181.756, 646.902 189.539, 651.182 191.934 C 654.684 193.893, 659.012 192.461, 660.788 188.756 C 661.871 186.498, 661.837 185.585, 660.581 183.156 C 659.755 181.560, 658.050 179.978, 656.790 179.641 C 654.033 178.902, 654.063 178.900, 651.280 180.020 M 678.123 183.099 C 675.425 185.995, 675.450 187.398, 678.250 190.066 C 680.329 192.046, 681.200 192.162, 689.714 191.587 C 700.786 190.839, 701.839 190.490, 702.638 187.305 C 703.761 182.832, 701.125 181.541, 690.089 181.160 C 680.906 180.843, 680.103 180.973, 678.123 183.099 M 376.124 186.578 C 363.766 189.902, 348.099 201.091, 343.596 209.810 C 341.970 212.958, 341.977 213.276, 343.733 216.283 C 346.308 220.691, 355.540 228, 358.533 228 C 360.165 228, 363.365 225.822, 368.050 221.523 C 373.233 216.766, 376.470 214.641, 380.236 213.523 C 391.632 210.138, 400.875 212.508, 410.855 221.371 C 414.431 224.547, 416.951 226, 418.883 226 C 422.243 226, 428.747 221.509, 432.485 216.608 C 436.416 211.454, 435.396 208.559, 426.786 200.437 C 412.923 187.359, 393.239 181.974, 376.124 186.578 M 716.237 195.108 C 711.332 196.923, 710.804 205.042, 715.454 207.161 C 721.048 209.710, 727.324 203.999, 724.863 198.598 C 723.505 195.619, 719.374 193.948, 716.237 195.108 M 272.400 195.765 C 271.071 196.652, 269 200.439, 269 201.980 C 269 203.874, 273.798 208, 276 208 C 278.678 208, 283 203.706, 283 201.045 C 283 196.726, 276.105 193.291, 272.400 195.765 M 381.712 196.122 C 379.078 196.637, 374.415 198.168, 371.350 199.524 C 365.443 202.136, 354.010 210.752, 354.004 212.595 C 354.002 213.197, 354.914 214.517, 356.030 215.527 C 358.023 217.330, 358.149 217.279, 362.780 212.781 C 370.286 205.492, 376.739 202.676, 387.076 202.182 C 398.470 201.637, 406.374 204.110, 413.686 210.507 C 416.511 212.978, 419.243 215, 419.756 215 C 420.270 215, 421.470 214.138, 422.424 213.084 C 424.099 211.233, 423.906 210.978, 416.829 205.667 C 405.919 197.479, 392.881 193.935, 381.712 196.122 M 565.383 198.583 C 561.755 200.373, 560 203.654, 560 208.647 C 560 213.555, 565.353 219, 570.177 219 C 576.350 219, 580.920 214.541, 580.968 208.473 C 581.005 203.816, 579.085 200.613, 574.989 198.494 C 571.366 196.621, 569.322 196.640, 565.383 198.583 M 679.073 211.635 C 677.933 213.084, 677 215.129, 677 216.180 C 677 218.648, 681.352 223, 683.820 223 C 687.107 223, 691 219.165, 691 215.927 C 691 209.448, 683.045 206.585, 679.073 211.635 M 739.308 217.914 C 727.326 221.342, 715.674 230.599, 710.089 241.125 C 708.238 244.616, 706.713 246.004, 703.110 247.482 C 700.446 248.574, 695.931 251.932, 692.415 255.436 C 677.683 270.119, 674.206 291.649, 683.500 310.632 C 689.169 322.209, 701.595 332.520, 712.297 334.528 C 715.521 335.133, 716.243 335.850, 718.429 340.625 C 721.296 346.889, 729.803 355.838, 735.795 358.895 C 753.228 367.789, 774.976 364.777, 789.919 351.399 C 792.845 348.780, 795.923 347.034, 798.438 346.568 C 809.711 344.481, 823.732 333.353, 829.273 322.097 C 832.366 315.813, 832.500 315.045, 832.500 303.521 C 832.500 291.932, 832.381 291.256, 829.173 284.695 C 824.832 275.817, 817.017 268.097, 808.704 264.476 L 802.405 261.731 801.180 255.116 C 797.756 236.620, 784.393 222.203, 766.307 217.492 C 758.766 215.527, 747.007 215.711, 739.308 217.914 M 385.170 218.992 C 380.796 220.027, 374.939 224.780, 372.752 229.071 C 370.629 233.233, 370.450 242.046, 372.411 245.800 C 375.442 251.601, 383.603 257, 389.342 257 C 392.996 257, 400.149 254.203, 402.853 251.716 C 408.272 246.734, 410.421 237.331, 407.653 230.718 C 405.822 226.345, 398.976 220.365, 394.321 219.072 C 390.057 217.888, 389.847 217.886, 385.170 218.992 M 651.500 219.171 C 648.708 220.788, 648.033 222.033, 648.015 225.595 C 647.984 231.929, 655.932 234.445, 659.927 229.365 C 662.459 226.146, 662.549 223.870, 660.250 221.153 C 658.050 218.554, 654.108 217.661, 651.500 219.171 M 460.892 220.250 C 458.133 222.564, 456.962 224.736, 457.590 226.373 C 459.140 230.413, 464 226.304, 464 220.953 C 464 218.699, 463.009 218.474, 460.892 220.250 M 175.500 223.401 C 171.817 225.051, 168.484 228.574, 167.067 232.315 C 166.345 234.220, 166 259.867, 166 311.615 C 166 395.552, 165.767 392.277, 171.967 395.483 C 174.507 396.797, 184.264 397, 244.700 396.998 C 309.163 396.997, 314.765 396.863, 317.966 395.248 C 325.366 391.516, 324.961 396.404, 325.018 310.088 C 325.067 237.659, 324.958 232.613, 323.285 229.757 C 322.303 228.081, 320.230 225.762, 318.677 224.605 C 315.879 222.518, 315.259 222.498, 247.177 222.278 C 191.457 222.099, 177.934 222.310, 175.500 223.401 M 383.455 231.455 C 378.014 236.895, 381.992 246.510, 389.594 246.295 C 400.800 245.977, 400.708 229, 389.500 229 C 387.021 229, 385.149 229.760, 383.455 231.455 M 177.328 248.500 C 177.333 252.350, 177.513 253.802, 177.730 251.728 C 177.946 249.653, 177.943 246.503, 177.722 244.728 C 177.501 242.952, 177.324 244.650, 177.328 248.500 M 727.335 245.750 C 714.828 252.734, 704.944 270.845, 713 272.019 C 716.156 272.478, 717.024 271.872, 719.113 267.750 C 722.368 261.326, 726.679 256.308, 731.060 253.846 C 734.171 252.098, 735 251.047, 735 248.851 C 735 247.125, 734.266 245.678, 733.066 245.035 C 730.637 243.735, 731.031 243.686, 727.335 245.750 M 427 247.411 C 427 248.862, 425.806 250.827, 424 252.347 C 422.350 253.735, 421 255.419, 421 256.089 C 421 257.617, 428.907 265, 430.544 265 C 432.400 265, 434.268 262.247, 433.397 260.794 C 432.971 260.082, 431.807 258.912, 430.811 258.193 C 428.315 256.392, 428.544 254.529, 431.500 252.592 C 434.467 250.648, 434.664 248.911, 432.171 246.655 C 429.446 244.188, 427 244.546, 427 247.411 M 346.455 255.455 C 345.105 256.805, 344 258.850, 344 260 C 344 262.616, 348.271 267, 350.820 267 C 354.342 267, 358 263.172, 358 259.484 C 358 253.315, 351.028 250.882, 346.455 255.455 M 235.251 255.481 C 227.226 257.740, 222.167 260.703, 216.278 266.591 C 201.054 281.816, 200.953 303.477, 216.022 321.470 C 221.001 327.416, 223.189 331.564, 225.401 339.250 L 227.056 345 245.909 345 L 264.763 345 265.952 340.250 C 267.844 332.698, 270.591 327.297, 276 320.500 C 287.061 306.600, 289.251 292.964, 282.714 278.687 C 274.623 261.013, 253.056 250.468, 235.251 255.481 M 650 257 C 647.742 259.258, 647.377 263.782, 649.250 266.295 C 649.938 267.218, 651.937 268.255, 653.693 268.600 C 656.338 269.120, 657.323 268.754, 659.443 266.467 C 662.542 263.123, 662.653 261.100, 659.927 257.635 C 657.392 254.411, 652.878 254.122, 650 257 M 737.500 276.359 C 735.420 279.535, 736.507 281.817, 740.454 282.557 C 744.126 283.246, 768.590 282.773, 769.295 282 C 770.814 280.336, 770.900 277.043, 769.463 275.605 C 768.137 274.280, 765.343 274, 753.452 274 C 739.419 274, 739.006 274.061, 737.500 276.359 M 381.112 283.581 C 372.342 285.939, 364.435 290.780, 357.844 297.826 C 351.313 304.808, 347.664 311.489, 346.006 319.500 C 345.305 322.884, 345.056 399.813, 345.235 557.500 L 345.500 790.500 349.234 798.320 C 355.919 812.319, 368.259 822.749, 382.542 826.469 C 391.081 828.693, 621.532 828.766, 629.869 826.547 C 647.041 821.977, 659.912 809.618, 665.285 792.542 L 667.500 785.500 667.500 554 L 667.500 322.500 664.845 315.236 C 658.641 298.258, 647.547 287.722, 631.465 283.533 C 622.867 281.293, 389.452 281.338, 381.112 283.581 M 784.557 288.223 C 782.345 291.380, 782.620 293.711, 785.550 296.641 C 787.521 298.612, 788.700 299.041, 790.739 298.529 C 798.339 296.622, 797.289 286, 789.500 286 C 787.134 286, 785.644 286.670, 784.557 288.223 M 233.637 292.506 C 229.358 296.785, 231.568 303, 237.368 303 C 241.263 303, 244 300.452, 244 296.826 C 244 291.903, 237.111 289.032, 233.637 292.506 M 249.400 291.765 C 246.952 293.400, 245.881 296.908, 247.115 299.250 C 248.654 302.173, 249.924 302.966, 253.095 302.985 C 258.280 303.015, 261.001 296.121, 257.171 292.655 C 255.276 290.939, 251.316 290.486, 249.400 291.765 M 738.200 293.200 C 736.363 295.037, 736.772 298.808, 738.934 299.965 C 740.986 301.063, 765.736 301.422, 768.418 300.393 C 770.287 299.676, 770.538 294.938, 768.800 293.200 C 767.980 292.380, 763.133 292, 753.500 292 C 743.867 292, 739.020 292.380, 738.200 293.200 M 379.219 295.125 C 372.209 297.830, 363.318 306.177, 359.500 313.638 L 356.500 319.500 356.500 554 L 356.500 788.500 359.216 794.296 C 362.559 801.431, 372.136 811.253, 378.707 814.287 L 383.500 816.500 506 816.500 L 628.500 816.500 634.390 813.516 C 641.714 809.805, 648.845 802.635, 652.618 795.187 C 655.317 789.862, 655.542 788.482, 656.158 773.500 C 657.226 747.488, 657.106 336.552, 656.026 327.164 C 655.475 322.365, 654.062 316.638, 652.698 313.664 C 649.695 307.122, 642.251 299.762, 635.071 296.236 L 629.500 293.500 507 293.294 C 385.891 293.090, 384.440 293.111, 379.219 295.125 M 499.766 313.750 L 460.031 314.023 458.444 316.444 C 456.639 319.200, 457.640 322.202, 460.957 323.977 C 462.177 324.630, 478.740 325, 506.712 325 C 555.635 325, 555.427 325.027, 554.806 318.677 C 554.414 314.665, 551.165 312.955, 544.500 313.253 C 541.750 313.376, 521.619 313.599, 499.766 313.750 M 132.140 322.358 L 126.849 327.716 132.282 332.358 C 135.271 334.911, 137.938 337, 138.209 337 C 138.480 337, 141.124 334.714, 144.084 331.921 L 149.466 326.842 144.307 321.921 C 141.470 319.214, 138.762 317, 138.290 317 C 137.818 317, 135.051 319.411, 132.140 322.358 M 136.500 326 C 135.684 327.320, 136.777 329, 138.452 329 C 139.915 329, 141.219 326.552, 140.264 325.598 C 139.332 324.665, 137.183 324.895, 136.500 326 M 844.411 334.409 C 837.697 338.930, 835.678 342.022, 837.061 345.660 C 837.637 347.174, 838.036 349.557, 837.948 350.956 C 837.620 356.178, 838.126 357.063, 843.464 360.607 C 849.819 364.827, 851.175 364.718, 858.363 359.408 C 863.038 355.955, 863.202 355.667, 862.610 351.962 C 862.259 349.768, 862.497 347.004, 863.161 345.545 C 864.058 343.578, 864.049 342.462, 863.122 340.741 C 861.803 338.292, 852.438 331, 850.610 331 C 849.985 331, 847.195 332.534, 844.411 334.409 M 847.476 340.039 C 846.466 341.674, 849.511 344.402, 851.496 343.640 C 852.405 343.291, 852.997 342.217, 852.814 341.253 C 852.427 339.223, 848.528 338.336, 847.476 340.039 M 367 545.955 L 367 745.909 370.250 746.519 C 372.038 746.854, 434.925 746.987, 510 746.814 L 646.500 746.500 646.752 546.250 L 647.005 346 507.002 346 L 367 346 367 545.955 M 685.250 354.434 C 682.913 356.855, 681 359.193, 681 359.630 C 681 360.758, 689.225 369, 690.350 369 C 690.864 369, 693.719 366.920, 696.695 364.377 L 702.107 359.754 696.803 354.923 C 693.886 352.265, 691.050 350.078, 690.500 350.062 C 689.950 350.046, 687.587 352.014, 685.250 354.434 M 847.638 351.500 C 846.774 353.751, 847.978 356, 850.048 356 C 852.393 356, 853.299 354.517, 852.497 351.991 C 851.757 349.659, 848.472 349.327, 847.638 351.500 M 230 358.526 L 230 361.052 245.250 360.776 C 260.208 360.505, 260.506 360.457, 260.820 358.250 L 261.139 356 245.570 356 L 230 356 230 358.526 M 689.688 357.646 C 688.216 359.117, 688.990 362.149, 690.750 361.810 C 691.712 361.624, 692.500 360.616, 692.500 359.570 C 692.500 357.580, 690.869 356.464, 689.688 357.646 M 820.040 358.452 C 819.377 359.251, 819.127 360.826, 819.485 361.952 C 820.619 365.526, 827 364.284, 827 360.490 C 827 360.299, 826.293 359.436, 825.429 358.571 C 823.468 356.611, 821.602 356.569, 820.040 358.452 M 871.930 358.584 C 870.151 360.728, 871.943 363.500, 875.109 363.500 C 876.868 363.500, 877.589 362.869, 877.837 361.113 C 878.372 357.335, 874.384 355.628, 871.930 358.584 M 128.746 376.892 L 122.993 382.833 128.567 388.166 C 131.632 391.100, 134.554 393.649, 135.060 393.830 C 135.566 394.012, 138.685 391.580, 141.991 388.427 L 148.001 382.694 142.751 377.097 C 139.863 374.019, 136.825 371.376, 136 371.225 C 135.175 371.074, 131.911 373.624, 128.746 376.892 M 413.219 379.795 C 409.542 383.230, 408.924 388.018, 411.510 393.020 C 414.608 399.010, 422.681 399.969, 428.020 394.982 C 431.020 392.179, 431.216 391.602, 430.764 386.898 C 430.132 380.321, 427.730 377.873, 421.303 377.255 C 416.953 376.837, 416.099 377.105, 413.219 379.795 M 492.653 380 L 489.236 383 465.653 383 C 443.094 383, 442.024 383.087, 441 385 C 439.763 387.311, 441.001 390.403, 443.554 391.382 C 444.439 391.722, 455.204 392, 467.476 392 L 489.788 392 493 395 C 497.405 399.115, 502.687 399.145, 507.234 395.082 C 510.038 392.577, 510.500 391.504, 510.500 387.500 C 510.500 383.496, 510.038 382.423, 507.234 379.918 C 502.688 375.856, 497.339 375.886, 492.653 380 M 538 379.245 C 530.621 383.123, 532.295 395.530, 540.475 397.583 C 546.427 399.077, 551.866 395.421, 552.676 389.382 C 553.148 385.861, 552.822 384.836, 550.363 382.107 C 547.054 378.436, 541.837 377.228, 538 379.245 M 590.500 378.945 C 583.324 381.882, 582.704 392.139, 589.436 396.550 C 595.346 400.422, 604 395.567, 604 388.378 C 604 383.822, 602.626 381.375, 599.020 379.510 C 595.810 377.850, 593.543 377.700, 590.500 378.945 M 134.040 380.452 C 132.482 382.330, 133.082 385.392, 135.083 385.778 C 137.171 386.180, 139.274 381.674, 137.723 380.123 C 136.239 378.639, 135.489 378.706, 134.040 380.452 M 692.741 381.419 C 687.913 383.155, 686.543 384.337, 684.592 388.447 C 683.176 391.432, 683 400.944, 683.004 474.651 C 683.007 553.946, 683.088 557.632, 684.886 560.580 C 689.007 567.338, 683.579 567.005, 788.651 566.956 C 889.053 566.910, 888.078 566.953, 893.173 562.345 C 894.295 561.330, 896.073 558.815, 897.124 556.756 C 898.965 553.148, 899.025 550.059, 898.767 471.579 C 898.503 391.102, 898.476 390.113, 896.438 387.385 C 895.304 385.866, 893.134 383.696, 891.615 382.562 C 888.876 380.516, 888.087 380.498, 792.677 380.284 C 713.980 380.107, 695.817 380.313, 692.741 381.419 M 539.050 384.440 C 537.433 386.388, 538.108 391.053, 540.197 392.361 C 543.024 394.130, 547.439 391.994, 547.822 388.671 C 548.237 385.077, 546.471 383, 543 383 C 541.485 383, 539.707 383.648, 539.050 384.440 M 590.440 385.451 C 588.466 388.465, 589.252 391.338, 592.451 392.796 C 594.435 393.700, 595.320 393.536, 597.432 391.875 C 600.454 389.498, 600.714 386.956, 598.171 384.655 C 595.547 382.280, 592.299 382.615, 590.440 385.451 M 695.555 392.336 C 694.013 393.464, 693.649 395.572, 693.226 405.836 L 692.725 418 789.749 418 L 886.773 418 887.213 415 L 887.654 412 820.577 411.994 L 753.500 411.987 751.750 408.913 C 749.536 405.023, 749.557 404.443, 752 402 C 753.960 400.040, 755.333 400, 821.131 400 L 888.262 400 887.666 396.331 C 887.339 394.313, 886.492 392.295, 885.785 391.846 C 885.078 391.398, 842.399 391.024, 790.941 391.015 C 714.433 391.003, 697.049 391.244, 695.555 392.336 M 704.364 397.170 C 699.694 399.431, 698.650 406.741, 702.455 410.545 C 705.417 413.508, 711.918 413.939, 714.512 411.345 C 719.103 406.754, 718.042 399.751, 712.397 397.392 C 708.542 395.782, 707.301 395.747, 704.364 397.170 M 728.248 397.706 C 724.906 398.350, 723.726 401.268, 724.958 405.845 C 725.844 409.135, 726.561 409.851, 729.996 410.881 C 732.198 411.540, 734 412.512, 734 413.040 C 734 414.736, 739.159 414.065, 742.634 411.917 C 746.409 409.584, 747.721 406.216, 746.062 403.116 C 744.573 400.334, 742.077 399.124, 737.130 398.784 C 734.860 398.628, 733.002 398.163, 733.001 397.750 C 733 396.974, 732.093 396.966, 728.248 397.706 M 125.500 417.207 C 120.572 418.929, 116.335 422.677, 114.102 427.289 C 112.012 431.606, 112 432.173, 112.010 523.566 L 112.020 615.500 114.368 620.500 C 117.074 626.260, 119.110 628.312, 124.254 630.462 C 127.477 631.808, 139.251 631.997, 218.718 631.978 C 304.840 631.957, 309.705 631.861, 313.500 630.110 C 318.341 627.876, 321.388 624.710, 323.452 619.768 C 324.812 616.515, 325 604.747, 325 523.097 C 325 459.972, 324.659 429.227, 323.939 427.315 C 322.360 423.128, 317.065 418.113, 313.044 416.996 C 308.039 415.605, 129.507 415.806, 125.500 417.207 M 124.872 430.651 C 123.850 431.880, 123.420 436.877, 123.186 450.228 L 122.872 468.156 127.605 473.215 C 130.208 475.998, 144.729 489.970, 159.875 504.264 L 187.413 530.253 189.270 525.877 C 192.810 517.533, 198.079 513.857, 206.500 513.857 C 209.428 513.857, 213.172 514.555, 214.822 515.408 C 218.567 517.344, 223.657 523.430, 225.042 527.626 C 225.693 529.599, 226.951 531.022, 228.355 531.374 C 229.600 531.687, 232.060 533.736, 233.822 535.928 C 239.398 542.867, 246.180 543.274, 253.149 537.090 C 257.209 533.487, 257.268 533.342, 256.101 529.807 C 251.838 516.889, 267.246 504.342, 277.983 511.988 C 290.357 520.799, 283.342 540.426, 268.421 538.744 C 264.416 538.293, 263.922 538.514, 261.103 542.021 C 259.441 544.090, 256.015 546.783, 253.490 548.005 C 244.752 552.235, 231.019 549.286, 226.500 542.209 C 225.109 540.030, 223.700 539.065, 221.872 539.039 C 218.542 538.990, 217.353 537.531, 216.106 531.961 C 214.223 523.555, 205.832 520.077, 200.443 525.466 C 198.494 527.415, 198.019 528.832, 198.178 532.216 C 198.289 534.572, 198.051 537.212, 197.648 538.081 C 196.919 539.655, 198.166 540.880, 265.933 605.165 L 282.446 620.830 288.265 620.540 C 291.465 620.381, 294.402 619.932, 294.792 619.542 C 295.181 619.153, 295.620 579.324, 295.767 531.033 L 296.033 443.232 263.767 442.517 C 246.020 442.124, 207.313 442.056, 177.750 442.365 L 124 442.927 124 439.529 C 124 435.586, 125.602 430.873, 127.313 429.786 C 128.140 429.260, 128.158 429.026, 127.372 429.015 C 126.752 429.007, 125.627 429.743, 124.872 430.651 M 717.186 439.239 L 717.500 442.500 759.295 442.761 C 787.758 442.939, 801.733 442.678, 803.106 441.943 C 804.384 441.260, 805.008 440.066, 804.811 438.682 L 804.500 436.500 760.686 436.239 L 716.872 435.979 717.186 439.239 M 449.766 448.702 C 439.522 452.119, 431.953 462.781, 430.055 476.469 C 428.973 484.273, 430.018 498.735, 432.575 511.330 L 434.164 519.160 428.132 524.618 C 419.445 532.480, 410.229 544.346, 406.088 553 C 402.834 559.802, 402.501 561.291, 402.514 569 C 402.526 576.344, 402.907 578.223, 405.313 582.814 C 412.753 597.007, 428.698 604.892, 459.123 609.422 C 465.802 610.416, 469.856 611.498, 470.500 612.458 C 471.050 613.279, 474.335 618.832, 477.799 624.799 C 490.689 646.996, 500.559 653.822, 513.500 649.486 C 521.726 646.731, 529.688 637.481, 539.911 618.802 C 544.083 611.177, 544.168 611.098, 548.812 610.484 C 559.123 609.122, 574.905 605.734, 582 603.361 C 597.173 598.287, 605.933 591.099, 609.964 580.419 C 615.844 564.837, 608.842 547.512, 588.578 527.500 L 580.477 519.500 581.700 513 C 587.327 483.082, 584.758 464.484, 573.574 454.175 C 561.399 442.952, 542.044 444.914, 515.860 460.026 L 506.898 465.198 503.101 462.686 C 495.593 457.717, 480.605 450.817, 473.215 448.927 C 464.220 446.626, 456.220 446.550, 449.766 448.702 M 194.637 450.411 C 189.455 452.331, 185.559 456.248, 183.519 461.590 C 181.574 466.683, 180.375 467.116, 178.907 463.254 C 178.333 461.744, 176.743 459.040, 175.373 457.245 C 167.259 446.607, 148.237 448.008, 143.394 459.600 C 141.324 464.554, 141.565 473.296, 143.829 475.345 C 148.243 479.340, 152 476.160, 152 468.429 C 152 461.910, 154.240 458.998, 159.250 459.004 C 164.758 459.010, 168.684 462.198, 170.432 468.082 C 172.539 475.177, 173.436 476, 179.066 476 C 183.311 476, 184.089 476.342, 185.579 478.864 C 187.876 482.752, 194.356 486.781, 199.571 487.563 C 205.869 488.507, 214.016 484.606, 217.163 479.138 C 219.274 475.470, 219.912 475.062, 223.953 474.795 C 227.955 474.530, 228.745 474.038, 231.655 470 C 239.532 459.069, 241.966 457.632, 249.841 459.257 C 253.185 459.948, 254.562 460.855, 255.841 463.213 C 259.183 469.377, 261.443 471.357, 264.313 470.636 C 271.425 468.851, 266.592 456.979, 256.624 451.748 C 246.646 446.511, 232.056 450.773, 227.115 460.369 C 223.805 466.797, 221.121 466.714, 218.326 460.099 C 214.586 451.245, 204.034 446.930, 194.637 450.411 M 717.184 456.750 L 717.500 459.500 752.638 459.763 C 783.243 459.991, 787.851 459.830, 788.357 458.513 C 788.676 457.681, 788.678 456.325, 788.362 455.500 C 787.865 454.206, 782.924 454, 752.327 454 L 716.867 454 717.184 456.750 M 194.490 462.195 C 190.996 466.347, 191.558 471.262, 195.981 475.250 C 199.291 478.234, 201.541 478.622, 205.387 476.870 L 207.867 475.739 205.784 472.922 C 203.807 470.248, 203.787 469.975, 205.374 467.552 C 206.294 466.149, 207.486 465, 208.023 465 C 208.560 465, 209 464.351, 209 463.557 C 209 461.291, 204.911 459, 200.866 459 C 197.946 459, 196.618 459.665, 194.490 462.195 M 456 459.885 C 447.593 461.635, 443.205 468.256, 442.271 480.600 C 441.724 487.836, 443.533 506.627, 445.007 509.011 C 445.454 509.734, 449.575 507.052, 456.440 501.571 C 462.344 496.856, 473.660 488.660, 481.587 483.356 C 489.514 478.053, 496 473.423, 496 473.067 C 496 471.894, 482.237 464.962, 475.063 462.521 C 466.766 459.700, 460.833 458.879, 456 459.885 M 548 459.647 C 541.069 460.983, 519 471.184, 519 473.051 C 519 473.506, 523.612 477.039, 529.250 480.901 C 544.865 491.598, 560.811 503.548, 565.637 508.170 C 567.363 509.822, 568.997 510.797, 569.270 510.337 C 570.130 508.883, 570.976 503.795, 571.936 494.310 C 573.587 477.995, 570.497 466.324, 563.357 461.912 C 560.082 459.888, 552.528 458.773, 548 459.647 M 717.183 473.740 L 717.500 476.500 763.500 476.500 L 809.500 476.500 809.500 474 L 809.500 471.500 763.183 471.240 L 716.865 470.980 717.183 473.740 M 237.500 474.569 C 229.557 478.692, 225.126 487.156, 226.863 494.888 C 229.333 505.879, 241.201 512.486, 251.446 508.574 C 263.102 504.122, 267.384 491.223, 260.606 480.981 C 256.026 474.060, 244.593 470.888, 237.500 474.569 M 498.500 486.705 C 458.933 514.537, 449 522.207, 449 524.923 C 449 530.979, 464.923 572.631, 475.482 594.194 L 478.232 599.812 490.866 600.546 C 507.327 601.503, 535.058 600.406, 536.589 598.737 C 537.776 597.444, 547.382 576.249, 553.012 562.500 C 556.722 553.442, 566 526.203, 566 524.371 C 566 523.077, 541.875 504.655, 525.500 493.446 C 520 489.680, 513.745 485.340, 511.600 483.800 C 509.455 482.260, 507.430 481.017, 507.100 481.039 C 506.770 481.060, 502.900 483.610, 498.500 486.705 M 238.806 485.040 C 236.254 487.592, 235.869 488.593, 236.405 491.277 C 236.757 493.035, 237.725 495.154, 238.557 495.985 C 239.906 497.335, 240.397 497.309, 243.123 495.744 C 244.803 494.780, 246.657 494.288, 247.243 494.650 C 247.849 495.025, 248.019 494.839, 247.635 494.219 C 246.869 492.979, 251.532 487.868, 252.528 488.856 C 252.886 489.210, 252.638 488.312, 251.979 486.860 C 249.519 481.445, 243.265 480.581, 238.806 485.040 M 783.930 504.584 C 782.977 505.732, 782.904 506.626, 783.666 507.834 C 784.565 509.261, 787.107 509.539, 801.378 509.774 C 811.735 509.945, 818.790 509.648, 820.020 508.989 C 822.391 507.720, 822.633 504.457, 820.418 503.607 C 819.548 503.273, 811.278 503, 802.041 503 C 787.936 503, 785.034 503.254, 783.930 504.584 M 726.229 511.679 C 722.347 513.211, 720.453 524, 723.097 529.517 C 727.875 539.486, 739.498 530.279, 736.167 519.163 C 734.543 513.742, 729.887 510.236, 726.229 511.679 M 786 519.729 C 783.716 520.598, 783.037 522.200, 784.105 524.196 C 785.013 525.893, 787.702 526, 829.453 526 C 853.864 526, 874.548 525.727, 875.418 525.393 C 877.469 524.606, 877.469 520.394, 875.418 519.607 C 873.420 518.840, 788.028 518.957, 786 519.729 M 497 523.081 C 488.006 527.152, 483.063 534.343, 482.244 544.548 C 480.744 563.239, 500.437 576.683, 517.500 568.617 C 529.171 563.099, 534.624 550.490, 530.824 537.807 C 529.280 532.654, 523.062 525.692, 517.673 523.084 C 511.969 520.323, 503.096 520.321, 497 523.081 M 501.500 533.958 C 496.578 536.453, 494 540.778, 494 546.539 C 494 550.248, 494.586 551.532, 497.845 554.958 C 501.323 558.613, 502.161 559, 506.617 559 C 512.968 559, 518.414 554.892, 520.032 548.880 C 520.958 545.443, 520.815 544.264, 519.042 540.683 C 515.242 533.008, 508.486 530.418, 501.500 533.958 M 430.382 540.506 C 415.719 556.791, 412.001 567.174, 417.079 577.663 C 420.917 585.592, 428.794 590.222, 445.557 594.402 C 460.545 598.140, 463.441 598.560, 462.728 596.892 C 462.401 596.126, 459.587 589.875, 456.475 583 C 450.119 568.958, 444.562 554.396, 441.019 542.500 C 439.708 538.100, 438.327 534.132, 437.950 533.682 C 437.572 533.232, 434.167 536.303, 430.382 540.506 M 574.014 540.130 C 572.835 544.183, 571.620 548.400, 571.315 549.500 C 569.972 554.329, 558.690 581.725, 554.995 589.130 C 552.762 593.606, 551.103 597.437, 551.309 597.643 C 552.071 598.404, 568.558 594.779, 576.403 592.126 C 586.480 588.717, 592.143 585.166, 596.005 579.834 C 600.024 574.286, 600.191 566.100, 596.448 558.060 C 593.874 552.531, 585.994 542.241, 579.653 536.130 L 576.156 532.759 574.014 540.130 M 786 535.658 C 783.698 536.643, 783.043 538.211, 784.105 540.196 C 784.999 541.867, 787.082 542, 812.335 542 C 840.624 542, 842 541.805, 842 537.800 C 842 536.134, 840.674 536, 824.250 535.995 C 814.487 535.992, 802.225 535.771, 797 535.503 C 791.775 535.236, 786.825 535.306, 786 535.658 M 155.667 552.667 C 155.300 553.033, 155 554.209, 155 555.280 C 155 557.009, 154.516 557.155, 150.674 556.578 C 144.870 555.708, 143 556.565, 143 560.094 C 143 562.439, 142.351 563.244, 139.500 564.436 C 136.762 565.580, 136 566.469, 136 568.520 C 136 569.963, 136.690 571.833, 137.534 572.677 C 139.776 574.919, 138.233 579.003, 134.669 580.261 C 134.212 580.422, 134.597 582.451, 135.525 584.771 C 136.453 587.090, 137.643 588.721, 138.169 588.396 C 138.695 588.070, 140.015 588.608, 141.101 589.591 C 142.550 590.903, 142.913 592.121, 142.463 594.170 C 141.922 596.633, 142.270 597.161, 145.435 598.670 C 147.990 599.889, 149.329 600.071, 150.094 599.306 C 151.722 597.678, 155.041 598.977, 156.052 601.637 C 156.764 603.508, 157.689 604, 160.500 604 C 163.332 604, 164.235 603.512, 164.967 601.586 C 166.064 598.701, 169.523 597.359, 171.543 599.036 C 174.040 601.108, 177.967 597.737, 177.813 593.654 C 177.653 589.384, 178.543 588, 181.451 588 C 183.081 588, 183.965 587.275, 184.387 585.593 C 184.720 584.269, 185.267 582.469, 185.603 581.593 C 186.008 580.538, 185.664 580, 184.586 580 C 183.690 580, 182.453 578.893, 181.837 577.541 C 180.940 575.572, 181.048 574.576, 182.378 572.545 C 184.661 569.061, 183.588 565.401, 179.908 564.118 C 177.746 563.364, 177 562.464, 177 560.611 C 177 557.377, 175.506 556.500, 170 556.500 C 166.095 556.500, 165.458 556.203, 165.180 554.250 C 164.906 552.318, 164.257 552, 160.597 552 C 158.252 552, 156.033 552.300, 155.667 552.667 M 154.316 565.943 C 146.794 569.359, 144.474 578.584, 149.302 585.880 C 157.034 597.564, 175.990 588.939, 172.910 575.138 C 171.935 570.769, 167.538 566.244, 163.057 564.999 C 158.618 563.766, 159.266 563.696, 154.316 565.943 M 762.989 583.250 C 760.377 587.534, 760.480 588.848, 763.692 592.200 L 766.383 595.010 764.155 597.755 C 762.930 599.265, 761.666 601.288, 761.347 602.250 C 760.992 603.321, 759.745 604.005, 758.133 604.014 C 752.795 604.041, 751 605.065, 751 608.081 C 751 611.861, 753.854 613.410, 758.469 612.136 C 761.068 611.419, 762.185 611.518, 763.035 612.542 C 763.654 613.288, 765.681 614.400, 767.541 615.013 C 769.910 615.795, 771.611 617.382, 773.226 620.315 C 776.289 625.879, 778.874 626.189, 782.773 621.459 C 785.725 617.878, 785.828 617.841, 788.320 619.474 C 789.779 620.430, 792.270 621.002, 794.179 620.819 C 798.604 620.394, 799.279 616.550, 795.545 613.043 C 792.089 609.796, 792.069 604.259, 795.500 600.182 C 800.235 594.556, 797.983 590.082, 791.339 591.917 C 787.684 592.926, 787.387 592.815, 783.482 588.983 C 781.250 586.792, 778.677 585, 777.763 585 C 776.849 585, 774.673 586.462, 772.927 588.250 C 770.611 590.622, 770.192 590.832, 771.377 589.027 C 773.462 585.852, 773.452 585.780, 770.548 582.646 C 767.312 579.155, 765.392 579.308, 762.989 583.250 M 722.021 584.062 C 717.496 585.966, 716 588.067, 716 592.515 C 716 595.339, 716.812 597.917, 718.470 600.360 C 721.800 605.268, 719.960 605, 716 600 C 712.770 595.922, 710.439 595.159, 706.934 597.035 C 704.149 598.526, 704.331 604.296, 707.250 607.030 C 708.487 608.189, 710.682 609.377, 712.127 609.669 C 714.701 610.190, 714.743 610.328, 714.241 616.583 C 713.731 622.937, 713.746 622.981, 717.664 626.899 C 722.809 632.045, 727.338 632.983, 733.239 630.126 C 738.282 627.685, 741 623.636, 741 618.564 C 741 613.793, 738.700 608.445, 736.035 607.019 C 733.912 605.883, 733.917 605.859, 736.951 602.404 C 743.805 594.597, 739.617 584.120, 729.343 583.371 C 726.679 583.177, 723.384 583.488, 722.021 584.062 M 818.035 586.934 C 816.401 589.988, 816.806 591.826, 819.500 593.592 C 821.816 595.109, 822.184 595.109, 824.500 593.592 C 825.875 592.691, 827 591.096, 827 590.048 C 827 585.528, 820.075 583.123, 818.035 586.934 M 841.381 586.851 C 837.493 589.295, 835.299 594.728, 837.367 596.795 C 838.513 597.942, 839.191 597.968, 841.113 596.940 C 842.403 596.249, 844.063 595.080, 844.801 594.342 C 847.954 591.189, 854 593.594, 854 598 C 854 601.218, 851.749 603, 847.682 603 C 846.037 603, 845.053 603.688, 844.685 605.096 C 843.921 608.019, 844.880 610, 847.060 610 C 848.075 610, 850.052 610.522, 851.453 611.161 C 853.434 612.063, 854 613.055, 854 615.625 C 854 621.090, 847.418 623.094, 844.434 618.539 C 842.613 615.761, 840.067 614.653, 837.641 615.584 C 833.337 617.236, 838.146 625.903, 844.536 628.012 C 850.569 630.003, 858.878 627.071, 861.483 622.033 C 863.774 617.603, 863.402 612.631, 860.524 609.210 C 858.090 606.319, 858.081 606.237, 859.967 604.530 C 864.110 600.780, 863.362 592.568, 858.457 587.960 C 854.961 584.675, 845.789 584.079, 841.381 586.851 M 873.888 586.443 C 871.037 588.054, 868.619 592.781, 869.173 595.659 C 869.712 598.459, 872.709 598.423, 876.092 595.576 C 879.499 592.709, 881.747 592.363, 884.395 594.299 C 885.576 595.163, 886.059 596.586, 885.836 598.543 C 885.540 601.140, 884.732 601.794, 879.008 604.076 C 871.401 607.109, 869.156 610.093, 868.309 618.295 C 867.354 627.544, 867.998 628, 882 628 C 892.771 628, 894.030 627.812, 894.965 626.066 C 896.304 623.564, 896.288 623.431, 894.429 621.571 C 893.264 620.407, 890.803 620, 884.929 620 L 877 620 877 617.122 C 877 613.725, 878.085 612.754, 883.657 611.163 C 888.217 609.860, 893.558 604.611, 894.617 600.391 C 895.512 596.824, 893.526 590.843, 890.503 588.003 C 887.328 585.020, 877.960 584.141, 873.888 586.443 M 725.187 591.242 C 725.401 593.456, 726.089 594.595, 727.356 594.836 C 730.004 595.338, 731.358 593.563, 730.608 590.573 C 730.126 588.652, 729.317 588, 727.418 588 C 725.151 588, 724.907 588.353, 725.187 591.242 M 774.655 599.829 C 772.143 602.604, 772.560 606.665, 775.557 608.629 C 777.980 610.217, 778.256 610.200, 780.807 608.302 C 784.501 605.554, 784.714 602.707, 781.420 600.115 C 778.125 597.524, 776.792 597.467, 774.655 599.829 M 685.245 606.250 C 683.123 608.903, 682.830 612.091, 684.477 614.606 C 686.712 618.016, 692.854 617.710, 694.645 614.099 C 695.923 611.520, 694.905 607.196, 692.687 605.786 C 690.817 604.596, 686.345 604.875, 685.245 606.250 M 486.001 613.206 C 485.999 615.317, 496.459 631.201, 500.517 635.250 C 503.740 638.466, 508.672 638.916, 512.586 636.352 C 514.771 634.920, 527.125 617.441, 528.521 613.806 C 528.925 612.756, 524.803 612.500, 507.512 612.500 C 495.681 612.500, 486.001 612.818, 486.001 613.206 M 724.185 616.690 C 722.911 619.120, 724.474 623.004, 726.718 622.985 C 729.791 622.958, 731.175 621.412, 730.830 618.391 C 730.569 616.101, 729.942 615.436, 727.817 615.190 C 726.023 614.983, 724.820 615.479, 724.185 616.690 M 817.950 622.560 C 817.027 623.672, 816.926 624.891, 817.596 626.810 C 818.811 630.284, 822.859 630.919, 825.461 628.043 C 827.001 626.342, 827.123 625.566, 826.180 623.496 C 824.848 620.572, 820.053 620.026, 817.950 622.560 M 868 644.115 C 868 644.728, 866.413 646.684, 864.472 648.461 C 860.758 651.864, 860.587 654.417, 864.003 655.501 C 865.003 655.818, 866.547 657.185, 867.434 658.539 C 869.611 661.863, 870.587 661.667, 875.117 656.999 C 879.610 652.369, 879.964 650.396, 876.577 648.853 C 875.244 648.246, 873.886 646.681, 873.558 645.375 C 873.131 643.673, 872.258 643, 870.481 643 C 869.116 643, 868 643.502, 868 644.115 M 692 644.820 C 688.292 646.500, 685.116 649.314, 684.121 651.799 C 682.419 656.048, 682.118 796.544, 683.802 800.559 C 686.621 807.282, 683.235 807, 761.154 806.998 C 839.813 806.997, 836.612 807.280, 840.248 800 C 841.864 796.766, 841.997 791.075, 841.998 725.151 C 842 646.929, 842.177 649.308, 836.080 645.706 C 833.428 644.140, 827.462 644.006, 763.346 644.070 C 724.931 644.109, 692.825 644.446, 692 644.820 M 171.873 651.684 C 165.743 655.488, 166 652.133, 166 728.454 C 166 805.137, 165.710 801.517, 172.235 806.171 L 175.500 808.500 245.598 808.500 C 321.156 808.500, 318.407 808.690, 322.500 803.188 C 324.450 800.567, 324.507 798.718, 324.769 728.669 L 325.039 656.839 321.619 653.419 L 318.200 650 246.350 650.027 C 181.698 650.051, 174.237 650.217, 171.873 651.684 M 571.364 656.170 C 566.779 658.390, 565.539 666.873, 569.131 671.440 C 573.081 676.461, 579 677.033, 579 672.393 C 579 670.420, 578.492 670, 576.107 670 C 573.096 670, 572 668.563, 572 664.618 C 572 661.764, 573.795 660, 576.700 660 C 578.487 660, 579 659.442, 579 657.500 C 579 655.423, 578.535 655.011, 576.250 655.068 C 574.737 655.105, 572.539 655.601, 571.364 656.170 M 588.667 655.667 C 586.827 657.506, 588.134 659.887, 591.149 660.187 C 595.447 660.614, 596.962 663.194, 594.985 666.717 C 594.152 668.202, 592.352 669.679, 590.985 669.999 C 589.420 670.366, 588.382 671.400, 588.180 672.791 C 587.909 674.668, 588.332 675, 590.996 675 C 595.455 675, 597.950 673.363, 599.634 669.334 C 601.454 664.977, 600.109 660.017, 596.293 657.016 C 593.771 655.032, 589.973 654.360, 588.667 655.667 M 694.571 656.571 C 693.707 657.436, 693.015 658.673, 693.033 659.321 C 693.052 659.970, 693.896 659.507, 694.909 658.293 C 695.923 657.078, 696.999 656.332, 697.301 656.634 C 697.603 656.936, 698.671 656.706, 699.675 656.122 C 701.292 655.182, 701.194 655.057, 698.821 655.030 C 697.348 655.014, 695.436 655.707, 694.571 656.571 M 708.355 656.518 C 707.219 659.478, 709.188 660, 721.309 659.946 C 735.930 659.881, 748.992 658.631, 749.869 657.212 C 750.220 656.645, 751.855 655.976, 753.503 655.725 C 755.151 655.475, 745.787 655.239, 732.693 655.201 C 713.274 655.144, 708.789 655.387, 708.355 656.518 M 773.500 655.902 C 770.832 656.597, 771.195 656.771, 776.772 657.473 C 780.222 657.908, 783.286 658.654, 783.581 659.132 C 783.877 659.609, 790.166 660, 797.559 660 C 810.866 660, 810.999 659.977, 810.884 657.750 C 810.797 656.057, 810.655 655.933, 810.311 657.250 C 810.059 658.212, 809.450 659, 808.958 659 C 808.466 659, 808.322 658.325, 808.638 657.500 C 809.127 656.226, 807.641 656, 798.754 656 C 793.001 656, 785.640 655.802, 782.397 655.560 C 779.154 655.318, 775.150 655.472, 773.500 655.902 M 130.716 661.485 L 125.932 666.754 131.074 671.377 C 133.902 673.920, 136.522 676, 136.896 676 C 137.269 676, 139.791 673.750, 142.500 671 L 147.425 666 142.500 661 C 139.791 658.250, 137.108 656.049, 136.538 656.108 C 135.967 656.167, 133.347 658.587, 130.716 661.485 M 135.676 665.402 C 135.002 667.159, 135.807 668, 138.167 668 C 140.280 668, 140.523 666.923, 138.800 665.200 C 137.227 663.627, 136.335 663.684, 135.676 665.402 M 427.873 691.684 C 420.466 696.281, 420.237 707.649, 427.456 712.379 C 430.859 714.609, 437.991 714.707, 441.254 712.569 C 448.146 708.053, 447.293 695.505, 439.810 691.353 C 436.614 689.579, 431.014 689.734, 427.873 691.684 M 472.763 691.565 C 467.186 694.591, 465.359 702.796, 468.950 708.686 C 471.294 712.530, 473.848 714.018, 478.400 714.189 C 485.887 714.470, 491 709.746, 491 702.546 C 491 692.767, 481.305 686.930, 472.763 691.565 M 517.225 691.946 C 512.064 695.185, 510.454 702.109, 513.494 707.989 C 515.687 712.230, 518.824 714, 524.146 714 C 532.696 714, 537.772 706.898, 535.070 698.712 C 532.546 691.063, 523.872 687.774, 517.225 691.946 M 733.736 692.407 C 731.582 694.561, 730.360 704.524, 732.006 706.508 C 733.717 708.569, 734.168 708.446, 738.467 704.750 C 740.546 702.962, 743.604 700.344, 745.263 698.931 L 748.279 696.362 744.489 694.126 C 739.240 691.029, 735.683 690.460, 733.736 692.407 M 783.359 692.923 C 781.632 693.976, 779.940 695.287, 779.601 695.837 C 779.262 696.386, 781.984 699.325, 785.650 702.368 C 791.077 706.873, 792.658 707.718, 794.158 706.915 C 796.249 705.797, 796.514 702.392, 794.951 696.762 C 793.324 690.904, 789.012 689.476, 783.359 692.923 M 862.750 697.605 C 859.587 700.665, 857 703.484, 857 703.869 C 857 704.879, 867.397 715, 868.435 715 C 869.247 715, 880.169 705.203, 880.774 703.932 C 881.104 703.238, 870.163 691.991, 869.186 692.020 C 868.809 692.031, 865.913 694.544, 862.750 697.605 M 208.718 711.250 C 208.392 720.737, 208.392 736.938, 208.717 747.250 L 209.308 766 245.654 766 L 282 766 282 730 L 282 694 245.655 694 L 209.311 694 208.718 711.250 M 557 698 C 555.900 699.100, 555 700.900, 555 702 C 555 703.100, 555.900 704.900, 557 706 C 558.100 707.100, 559.900 708, 561 708 C 563.494 708, 567 704.604, 567 702.189 C 567 699.724, 563.366 696, 560.961 696 C 559.882 696, 558.100 696.900, 557 698 M 586.200 698.200 C 584.523 699.877, 584.702 704.508, 586.503 706.003 C 587.330 706.689, 589.128 707.250, 590.500 707.250 C 593.908 707.250, 596 705.282, 596 702.078 C 596 698.563, 594.306 697, 590.500 697 C 588.795 697, 586.860 697.540, 586.200 698.200 M 136.455 702.455 C 133.286 705.623, 133.327 709.418, 136.566 712.657 C 138.636 714.727, 139.748 715.105, 142.316 714.609 C 146.267 713.846, 149 710.689, 149 706.889 C 149 700.479, 141.191 697.718, 136.455 702.455 M 867.200 701.200 C 865.640 702.760, 865.684 704.186, 867.363 706.482 C 868.665 708.262, 868.806 708.225, 870.482 705.668 C 871.899 703.505, 871.998 702.703, 870.996 701.495 C 869.495 699.686, 868.770 699.630, 867.200 701.200 M 758.831 701.978 C 755.245 703.061, 743.575 711.464, 741.774 714.261 C 739.958 717.080, 738.011 722.678, 738.632 723.298 C 739.965 724.632, 746.679 721.742, 749.863 718.465 C 751.829 716.440, 754.452 714.399, 755.691 713.927 C 757.008 713.427, 758.188 711.914, 758.532 710.285 C 759.493 705.725, 760.563 704.500, 763.581 704.500 C 766.047 704.500, 766.666 705.104, 768.057 708.868 C 768.944 711.270, 770.532 713.702, 771.585 714.272 C 772.638 714.841, 775.402 717.038, 777.728 719.154 C 780.742 721.896, 782.854 723, 785.086 723 C 788.001 723, 788.170 722.811, 787.530 720.250 C 786.256 715.143, 782.712 710.770, 776.698 706.883 C 771.288 703.386, 765.142 700.879, 762.500 701.092 C 761.950 701.136, 760.299 701.535, 758.831 701.978 M 719.940 716.702 C 713.473 721.093, 709.474 727.970, 712.020 730.323 C 713.003 731.232, 713.133 731.215, 712.588 730.250 C 712.200 729.563, 712.359 729, 712.941 729 C 713.523 729, 713.888 728.458, 713.750 727.795 C 713.612 727.133, 714.020 726.570, 714.655 726.545 C 715.862 726.498, 723.445 716.111, 722.767 715.434 C 722.554 715.221, 721.281 715.791, 719.940 716.702 M 759 723 C 756.363 725.637, 756.477 727.568, 759.444 730.535 C 761.055 732.146, 762.505 732.761, 763.694 732.338 C 766.613 731.300, 769 728.829, 769 726.845 C 769 724.401, 765.509 721, 763 721 C 761.900 721, 760.100 721.900, 759 723 M 784.017 731.831 C 781.549 732.065, 779.158 733.449, 775.810 736.581 C 773.212 739.011, 770.652 741, 770.122 741 C 769.592 741, 768.873 742.303, 768.523 743.896 C 767.752 747.407, 764.779 750.298, 762.413 749.838 C 761.458 749.652, 760.183 748.031, 759.578 746.235 C 758.961 744.400, 757.111 742.138, 755.356 741.070 C 753.637 740.025, 751.001 737.557, 749.497 735.585 C 747.082 732.419, 746.243 732, 742.314 732 C 738.169 732, 737.911 732.154, 738.535 734.250 C 739.956 739.028, 743.793 743.228, 751.194 748.107 C 762.649 755.658, 766.162 755.343, 779.727 745.551 C 783.869 742.561, 788.477 735.293, 787.828 732.773 C 787.619 731.964, 786.232 731.620, 784.017 731.831 M 732.035 748.934 C 730.581 751.651, 730.747 755.459, 732.504 759.663 C 733.956 763.139, 734.150 763.243, 738.156 762.706 C 740.653 762.371, 743.270 761.184, 744.729 759.726 L 747.152 757.302 740.598 752.151 C 736.993 749.318, 733.824 747, 733.557 747 C 733.289 747, 732.605 747.870, 732.035 748.934 M 785.500 752.428 C 782.200 755.386, 779.725 757.991, 780 758.217 C 786.019 763.161, 791.497 764.516, 793.876 761.649 C 796.905 758, 796.028 746.958, 792.715 747.024 C 792.047 747.038, 788.800 749.469, 785.500 752.428 M 495.220 759.578 C 474.892 769.708, 476.792 798.102, 498.285 805.380 C 504.172 807.373, 507.313 807.412, 513.438 805.569 C 525.042 802.076, 531.465 793.286, 531.353 781.051 C 531.289 774.029, 529.959 770.481, 525.327 764.977 C 518.692 757.092, 505.100 754.654, 495.220 759.578 M 500.500 768.995 C 495.271 771.601, 491.987 776.482, 492.045 781.562 L 492.089 785.500 493.795 783.163 C 497.688 777.827, 502.687 772.566, 505.500 770.844 C 507.150 769.834, 507.998 769.006, 507.385 769.004 C 506.772 769.002, 505.052 769.958, 503.564 771.129 C 501.476 772.770, 500.588 772.986, 499.679 772.069 C 498.771 771.155, 498.902 771.035, 500.250 771.548 C 501.212 771.914, 502 771.764, 502 771.214 C 502 770.664, 503.688 769.514, 505.750 768.658 C 508.999 767.311, 509.166 767.096, 507 767.052 C 505.625 767.024, 502.700 767.899, 500.500 768.995 M 178.516 782 C 179.712 786.313, 182.213 788.016, 188.051 788.489 L 193.500 788.931 188.232 787.886 C 183.856 787.019, 182.529 786.220, 180.393 783.171 C 178.311 780.198, 177.954 779.975, 178.516 782 M 332.250 822.951 C 329.913 825.562, 328 827.993, 328 828.352 C 328 829.127, 335.808 836.337, 337.219 836.866 C 337.756 837.067, 340.402 835.058, 343.100 832.402 L 348.003 827.572 343.289 822.786 C 340.696 820.154, 338.108 818.046, 337.538 818.102 C 336.967 818.158, 334.587 820.340, 332.250 822.951 M 755 824.704 C 750.597 826.248, 749.453 833.803, 753.223 836.443 C 754.445 837.299, 756.265 838, 757.268 838 C 759.870 838, 764 833.521, 764 830.700 C 764 826.907, 758.730 823.396, 755 824.704 M 336.688 825.646 C 335.272 827.061, 336.073 829, 338.073 829 C 339.471 829, 340.041 828.457, 339.823 827.333 C 339.466 825.492, 337.759 824.574, 336.688 825.646 M 702.035 827.934 C 701.466 828.998, 701 830.316, 701 830.863 C 701 832.822, 704.196 835, 707.071 835 C 709.941 835, 710 835.107, 710 840.300 C 710 846.070, 711.169 848, 714.665 848 C 717.593 848, 719 845.263, 719 839.566 C 719 835.084, 719.060 835, 722.250 834.985 C 728.692 834.956, 732.831 830.911, 729.960 827.452 C 729.021 826.321, 725.919 826, 715.913 826 C 704.239 826, 702.976 826.176, 702.035 827.934 M 271.580 829.116 C 268.117 831.839, 268.342 836.442, 272.073 839.215 C 275.456 841.728, 279.568 840.736, 281.535 836.932 C 283.510 833.114, 283.404 832.313, 280.545 829.455 C 277.535 826.444, 275.094 826.351, 271.580 829.116 M 678.667 830.667 C 677.294 832.040, 678.069 835.967, 679.907 836.950 C 681.355 837.725, 682.349 837.538, 684.034 836.173 C 687.119 833.675, 685.967 830, 682.099 830 C 680.578 830, 679.033 830.300, 678.667 830.667 M 365.500 838.417 C 361.773 840.081, 357.469 844.596, 356.064 848.315 C 355.479 849.863, 355 856.659, 355 863.417 C 355 874.541, 355.215 876.024, 357.274 879.078 C 358.524 880.934, 361.066 883.476, 362.922 884.726 L 366.296 887 508.068 887 L 649.840 887 661.170 883.106 C 673.255 878.952, 699.722 869.025, 704.195 866.968 C 705.677 866.287, 707.121 865.128, 707.402 864.393 C 708.504 861.523, 707.047 860.841, 665.500 844.768 C 661.100 843.066, 655.377 840.622, 652.783 839.336 L 648.066 837 508.283 837.039 C 393.722 837.071, 367.959 837.320, 365.500 838.417 M 627.827 851.987 C 628.169 855.574, 627.897 856.151, 625.110 857.737 C 623.407 858.707, 622.010 859.815, 622.006 860.199 C 622.003 860.584, 623.575 862.100, 625.500 863.568 C 629.205 866.394, 630.079 870.116, 627.965 874.066 C 626.970 875.924, 627.365 876, 637.965 876 L 649 876 649 862.617 C 649 846.985, 649.938 848.036, 635.974 848.014 L 627.447 848 627.827 851.987 M 298.750 850.088 C 297.735 850.675, 297 852.286, 297 853.922 C 297 856.581, 296.707 856.774, 291.978 857.228 C 286.356 857.768, 286.496 857.693, 285.590 860.645 C 284.635 863.757, 287.363 866, 292.103 866 C 295.002 866, 296.208 866.469, 296.604 867.750 C 297.759 871.490, 298.823 872.500, 301.609 872.500 C 304.008 872.500, 304.663 871.947, 305.457 869.250 C 306.413 866.001, 306.415 866, 313.135 866 C 319.949 866, 323 864.608, 323 861.500 C 323 858.361, 319.955 857, 312.929 857 C 306.415 857, 305.999 856.865, 305.985 854.750 C 305.976 853.513, 305.639 851.998, 305.235 851.385 C 304.093 849.652, 300.684 848.971, 298.750 850.088 M 367.035 850.934 C 366.466 851.998, 366 854.023, 366 855.434 C 366 857.700, 366.409 858, 369.500 858 C 372.967 858, 372.999 857.959, 372.900 853.750 C 372.816 850.140, 372.680 849.876, 372 852 C 371.560 853.375, 371.155 853.885, 371.100 853.133 C 371.034 852.228, 370.241 851.958, 368.750 852.334 C 366.703 852.849, 366.658 852.782, 368.250 851.590 C 370.180 850.145, 370.527 849, 369.035 849 C 368.505 849, 367.605 849.870, 367.035 850.934 M 659 863 C 659 867.950, 659.337 872.007, 659.750 872.015 C 661.817 872.057, 683.889 863.497, 683.246 862.903 C 682.533 862.242, 660.552 854, 659.505 854 C 659.227 854, 659 858.050, 659 863" stroke="none" fill="#ddf2fa" fill-rule="evenodd"/></svg>